%TF.GenerationSoftware,KiCad,Pcbnew,7.0.2-0*%
%TF.CreationDate,2023-05-22T09:33:56+09:00*%
%TF.ProjectId,SBC6808_Rev5,53424336-3830-4385-9f52-6576352e6b69,Rev5*%
%TF.SameCoordinates,PX3e22018PY9119050*%
%TF.FileFunction,Soldermask,Bot*%
%TF.FilePolarity,Negative*%
%FSLAX46Y46*%
G04 Gerber Fmt 4.6, Leading zero omitted, Abs format (unit mm)*
G04 Created by KiCad (PCBNEW 7.0.2-0) date 2023-05-22 09:33:56*
%MOMM*%
%LPD*%
G01*
G04 APERTURE LIST*
G04 Aperture macros list*
%AMRoundRect*
0 Rectangle with rounded corners*
0 $1 Rounding radius*
0 $2 $3 $4 $5 $6 $7 $8 $9 X,Y pos of 4 corners*
0 Add a 4 corners polygon primitive as box body*
4,1,4,$2,$3,$4,$5,$6,$7,$8,$9,$2,$3,0*
0 Add four circle primitives for the rounded corners*
1,1,$1+$1,$2,$3*
1,1,$1+$1,$4,$5*
1,1,$1+$1,$6,$7*
1,1,$1+$1,$8,$9*
0 Add four rect primitives between the rounded corners*
20,1,$1+$1,$2,$3,$4,$5,0*
20,1,$1+$1,$4,$5,$6,$7,0*
20,1,$1+$1,$6,$7,$8,$9,0*
20,1,$1+$1,$8,$9,$2,$3,0*%
G04 Aperture macros list end*
%ADD10C,1.400000*%
%ADD11O,1.400000X1.400000*%
%ADD12R,1.800000X1.800000*%
%ADD13C,1.800000*%
%ADD14RoundRect,0.250000X-0.600000X0.600000X-0.600000X-0.600000X0.600000X-0.600000X0.600000X0.600000X0*%
%ADD15C,1.700000*%
%ADD16R,1.600000X1.600000*%
%ADD17O,1.600000X1.600000*%
%ADD18C,1.600000*%
%ADD19C,2.000000*%
%ADD20R,1.700000X1.700000*%
%ADD21O,1.700000X1.700000*%
%ADD22C,0.800000*%
G04 APERTURE END LIST*
D10*
%TO.C,R5*%
X66197000Y84328000D03*
D11*
X71277000Y84328000D03*
%TD*%
D12*
%TO.C,D1*%
X67467000Y79756000D03*
D13*
X70007000Y79756000D03*
%TD*%
D10*
%TO.C,R2*%
X12192000Y72644000D03*
D11*
X12192000Y67564000D03*
%TD*%
D14*
%TO.C,J1*%
X83121500Y20701000D03*
D15*
X83121500Y18161000D03*
X80581500Y20701000D03*
X80581500Y18161000D03*
X78041500Y20701000D03*
X78041500Y18161000D03*
X75501500Y20701000D03*
X75501500Y18161000D03*
X72961500Y20701000D03*
X72961500Y18161000D03*
X70421500Y20701000D03*
X70421500Y18161000D03*
X67881500Y20701000D03*
X67881500Y18161000D03*
X65341500Y20701000D03*
X65341500Y18161000D03*
X62801500Y20701000D03*
X62801500Y18161000D03*
X60261500Y20701000D03*
X60261500Y18161000D03*
X57721500Y20701000D03*
X57721500Y18161000D03*
X55181500Y20701000D03*
X55181500Y18161000D03*
X52641500Y20701000D03*
X52641500Y18161000D03*
X50101500Y20701000D03*
X50101500Y18161000D03*
X47561500Y20701000D03*
X47561500Y18161000D03*
X45021500Y20701000D03*
X45021500Y18161000D03*
X42481500Y20701000D03*
X42481500Y18161000D03*
X39941500Y20701000D03*
X39941500Y18161000D03*
X37401500Y20701000D03*
X37401500Y18161000D03*
X34861500Y20701000D03*
X34861500Y18161000D03*
%TD*%
D10*
%TO.C,R3*%
X15748000Y18542000D03*
D11*
X10668000Y18542000D03*
%TD*%
D16*
%TO.C,U2*%
X15748000Y79756000D03*
D17*
X18288000Y79756000D03*
X20828000Y79756000D03*
X23368000Y79756000D03*
X25908000Y79756000D03*
X28448000Y79756000D03*
X30988000Y79756000D03*
X30988000Y87376000D03*
X28448000Y87376000D03*
X25908000Y87376000D03*
X23368000Y87376000D03*
X20828000Y87376000D03*
X18288000Y87376000D03*
X15748000Y87376000D03*
%TD*%
D16*
%TO.C,U5*%
X53340000Y87376000D03*
D17*
X53340000Y84836000D03*
X53340000Y82296000D03*
X53340000Y79756000D03*
X53340000Y77216000D03*
X53340000Y74676000D03*
X53340000Y72136000D03*
X53340000Y69596000D03*
X60960000Y69596000D03*
X60960000Y72136000D03*
X60960000Y74676000D03*
X60960000Y77216000D03*
X60960000Y79756000D03*
X60960000Y82296000D03*
X60960000Y84836000D03*
X60960000Y87376000D03*
%TD*%
D16*
%TO.C,U4*%
X15748000Y72136000D03*
D17*
X15748000Y69596000D03*
X15748000Y67056000D03*
X15748000Y64516000D03*
X15748000Y61976000D03*
X15748000Y59436000D03*
X15748000Y56896000D03*
X15748000Y54356000D03*
X15748000Y51816000D03*
X15748000Y49276000D03*
X15748000Y46736000D03*
X15748000Y44196000D03*
X15748000Y41656000D03*
X15748000Y39116000D03*
X15748000Y36576000D03*
X15748000Y34036000D03*
X15748000Y31496000D03*
X15748000Y28956000D03*
X15748000Y26416000D03*
X15748000Y23876000D03*
X30988000Y23876000D03*
X30988000Y26416000D03*
X30988000Y28956000D03*
X30988000Y31496000D03*
X30988000Y34036000D03*
X30988000Y36576000D03*
X30988000Y39116000D03*
X30988000Y41656000D03*
X30988000Y44196000D03*
X30988000Y46736000D03*
X30988000Y49276000D03*
X30988000Y51816000D03*
X30988000Y54356000D03*
X30988000Y56896000D03*
X30988000Y59436000D03*
X30988000Y61976000D03*
X30988000Y64516000D03*
X30988000Y67056000D03*
X30988000Y69596000D03*
X30988000Y72136000D03*
%TD*%
D16*
%TO.C,U7*%
X38100000Y62992000D03*
D17*
X38100000Y60452000D03*
X38100000Y57912000D03*
X38100000Y55372000D03*
X38100000Y52832000D03*
X38100000Y50292000D03*
X38100000Y47752000D03*
X38100000Y45212000D03*
X38100000Y42672000D03*
X38100000Y40132000D03*
X38100000Y37592000D03*
X38100000Y35052000D03*
X38100000Y32512000D03*
X38100000Y29972000D03*
X53340000Y29972000D03*
X53340000Y32512000D03*
X53340000Y35052000D03*
X53340000Y37592000D03*
X53340000Y40132000D03*
X53340000Y42672000D03*
X53340000Y45212000D03*
X53340000Y47752000D03*
X53340000Y50292000D03*
X53340000Y52832000D03*
X53340000Y55372000D03*
X53340000Y57912000D03*
X53340000Y60452000D03*
X53340000Y62992000D03*
%TD*%
D16*
%TO.C,U8*%
X59182000Y62992000D03*
D17*
X59182000Y60452000D03*
X59182000Y57912000D03*
X59182000Y55372000D03*
X59182000Y52832000D03*
X59182000Y50292000D03*
X59182000Y47752000D03*
X59182000Y45212000D03*
X59182000Y42672000D03*
X59182000Y40132000D03*
X59182000Y37592000D03*
X59182000Y35052000D03*
X59182000Y32512000D03*
X59182000Y29972000D03*
X74422000Y29972000D03*
X74422000Y32512000D03*
X74422000Y35052000D03*
X74422000Y37592000D03*
X74422000Y40132000D03*
X74422000Y42672000D03*
X74422000Y45212000D03*
X74422000Y47752000D03*
X74422000Y50292000D03*
X74422000Y52832000D03*
X74422000Y55372000D03*
X74422000Y57912000D03*
X74422000Y60452000D03*
X74422000Y62992000D03*
%TD*%
D16*
%TO.C,U6*%
X80645000Y57912000D03*
D17*
X80645000Y55372000D03*
X80645000Y52832000D03*
X80645000Y50292000D03*
X80645000Y47752000D03*
X80645000Y45212000D03*
X80645000Y42672000D03*
X80645000Y40132000D03*
X80645000Y37592000D03*
X80645000Y35052000D03*
X80645000Y32512000D03*
X80645000Y29972000D03*
X95885000Y29972000D03*
X95885000Y32512000D03*
X95885000Y35052000D03*
X95885000Y37592000D03*
X95885000Y40132000D03*
X95885000Y42672000D03*
X95885000Y45212000D03*
X95885000Y47752000D03*
X95885000Y50292000D03*
X95885000Y52832000D03*
X95885000Y55372000D03*
X95885000Y57912000D03*
%TD*%
D10*
%TO.C,R1*%
X12192000Y49276000D03*
D11*
X12192000Y54356000D03*
%TD*%
D18*
%TO.C,C2*%
X12192000Y85852000D03*
X12192000Y80852000D03*
%TD*%
%TO.C,C3*%
X90932000Y60960000D03*
X85932000Y60960000D03*
%TD*%
%TO.C,C4*%
X48260000Y66294000D03*
X43260000Y66294000D03*
%TD*%
%TO.C,C5*%
X69596000Y66040000D03*
X64596000Y66040000D03*
%TD*%
%TO.C,C7*%
X12192000Y44704000D03*
X12192000Y39704000D03*
%TD*%
%TO.C,C6*%
X95955000Y85598000D03*
X100955000Y85598000D03*
%TD*%
D19*
%TO.C,SW1*%
X15621000Y15621000D03*
X15621000Y9121000D03*
X11121000Y15621000D03*
X11121000Y9121000D03*
%TD*%
D16*
%TO.C,C1*%
X90297000Y10160000D03*
D18*
X92797000Y10160000D03*
%TD*%
D16*
%TO.C,X1*%
X94899000Y78486000D03*
D18*
X94899000Y70866000D03*
X102519000Y70866000D03*
X102519000Y78486000D03*
%TD*%
D20*
%TO.C,JP1*%
X12065000Y57658000D03*
D21*
X12065000Y60198000D03*
X12065000Y62738000D03*
%TD*%
D16*
%TO.C,U3*%
X98552000Y54102000D03*
D17*
X98552000Y51562000D03*
X98552000Y49022000D03*
X98552000Y46482000D03*
X106172000Y46482000D03*
X106172000Y49022000D03*
X106172000Y51562000D03*
X106172000Y54102000D03*
%TD*%
D20*
%TO.C,J3*%
X70256000Y90170000D03*
D21*
X72796000Y90170000D03*
%TD*%
D16*
%TO.C,U1*%
X39634000Y84841000D03*
D17*
X39634000Y82301000D03*
X39634000Y79761000D03*
X39634000Y77221000D03*
X39634000Y74681000D03*
X39634000Y72141000D03*
X39634000Y69601000D03*
X47254000Y69601000D03*
X47254000Y72141000D03*
X47254000Y74681000D03*
X47254000Y77221000D03*
X47254000Y79761000D03*
X47254000Y82301000D03*
X47254000Y84841000D03*
%TD*%
D10*
%TO.C,R4*%
X62387000Y90170000D03*
D11*
X67467000Y90170000D03*
%TD*%
D20*
%TO.C,J2*%
X101295200Y25273000D03*
D21*
X101295200Y27813000D03*
X101295200Y30353000D03*
X101295200Y32893000D03*
X101295200Y35433000D03*
X101295200Y37973000D03*
%TD*%
D22*
X64927000Y72136000D03*
X106045000Y37973000D03*
X30861000Y18161000D03*
X105918000Y57658000D03*
X80772000Y60960000D03*
X80772000Y64516000D03*
X64419000Y68326000D03*
X59603947Y90025366D03*
X47147000Y90678000D03*
X48592500Y62521500D03*
X74422000Y65443990D03*
X74579000Y90170000D03*
X42200990Y37592000D03*
X51562000Y14224000D03*
X79405000Y11684000D03*
X86009000Y11684000D03*
X66548000Y14224000D03*
X66548000Y11339990D03*
X86106000Y52832000D03*
X67056000Y37592000D03*
X42164000Y54356000D03*
X51308000Y37592000D03*
X87787000Y10160000D03*
X87630000Y49022000D03*
X76839940Y10160000D03*
X43688000Y32512000D03*
X70261000Y49022000D03*
X43688000Y49022000D03*
X70476995Y33405137D03*
X45212000Y43434000D03*
X91971354Y14224000D03*
X45369000Y32512000D03*
X74168000Y14224000D03*
X91948000Y42672000D03*
X89009001Y36466999D03*
X34036000Y39116000D03*
X88900000Y19558000D03*
X33998500Y37592000D03*
X69461500Y30226000D03*
X19558000Y51816000D03*
X19558000Y40386000D03*
X69499000Y40132000D03*
X68072000Y45212000D03*
X23368000Y41656000D03*
X23368000Y50292000D03*
X83820000Y26162000D03*
X83566000Y35052000D03*
X23287665Y21551010D03*
X65278000Y26162000D03*
X21082000Y36576000D03*
X21082000Y55372000D03*
X61468000Y10668000D03*
X21082000Y10160000D03*
X58909329Y12192000D03*
X63500000Y26924000D03*
X19558000Y31496000D03*
X63419205Y55154990D03*
X19558000Y11938000D03*
X60198000Y26924000D03*
X57658000Y23114000D03*
X41402000Y45262020D03*
X41402000Y31242000D03*
X66294000Y46482000D03*
X18796000Y30226000D03*
X66294000Y23114000D03*
X66294000Y44196000D03*
X18796000Y26162000D03*
X55181500Y26479500D03*
X55118000Y60452000D03*
X52578000Y27686000D03*
X57404000Y62992000D03*
X57404000Y84836000D03*
X35971000Y32004000D03*
X57404000Y27686000D03*
X32512000Y31967010D03*
X35971000Y62992000D03*
X32512000Y27686000D03*
X80518000Y13462000D03*
X90581000Y33782000D03*
X91607535Y51017010D03*
X42926000Y51562000D03*
X90581000Y13462000D03*
X42926000Y35814000D03*
X86868000Y10922000D03*
X45198291Y29246990D03*
X86868000Y46482000D03*
X44450000Y46482000D03*
X71664990Y46482000D03*
X71023000Y29972000D03*
X78135000Y10963372D03*
X46117497Y40132000D03*
X75565000Y13425010D03*
X65532000Y35052000D03*
X46131000Y35292488D03*
X88392000Y40132000D03*
X65532000Y33274000D03*
X76327000Y43815000D03*
X76327000Y35052000D03*
X71786499Y13425010D03*
X88392000Y42418000D03*
X47655000Y40094500D03*
X91222990Y35052000D03*
X47655000Y38316500D03*
X72961500Y15303500D03*
X35560000Y38354000D03*
X34955000Y36576000D03*
X92710000Y15240000D03*
X91222990Y41213456D03*
X92710000Y35052000D03*
X18796000Y49276000D03*
X18796000Y42926000D03*
X70358000Y13462000D03*
X38862000Y13462000D03*
X61371000Y38862000D03*
X20320000Y44196000D03*
X61371000Y47752000D03*
X20320000Y48006000D03*
X68737000Y38862000D03*
X21844000Y53086000D03*
X65278000Y9652000D03*
X21844000Y9398000D03*
X21844000Y39116000D03*
X62801500Y8890000D03*
X22606000Y34036000D03*
X22606000Y57912000D03*
X22571428Y8601428D03*
X20320000Y10922000D03*
X64262000Y52832000D03*
X64262000Y26162000D03*
X61468000Y26162000D03*
X20320000Y28956000D03*
X60261500Y11430000D03*
X62387000Y49276000D03*
X57721500Y12736990D03*
X18796000Y23876000D03*
X62738000Y27686000D03*
X19031412Y12926472D03*
X58928000Y27686000D03*
X56388000Y57912000D03*
X56388000Y87376000D03*
X56388000Y28411010D03*
X50546000Y86106000D03*
X35814000Y87376000D03*
X29261387Y16546752D03*
X50546000Y82296000D03*
X35717000Y84836000D03*
X31145000Y77940500D03*
X29210000Y34036000D03*
X36031010Y77941010D03*
X76962000Y27686000D03*
X76962000Y64516000D03*
X93726000Y32512000D03*
X28194000Y64389000D03*
X28321000Y15875000D03*
X20828000Y89662000D03*
X50014598Y15838010D03*
X28448000Y89662000D03*
X93599000Y27559000D03*
X23271000Y76708000D03*
X26670000Y61976000D03*
X50449000Y74676000D03*
X26319000Y76708000D03*
X50449000Y70866000D03*
X37338000Y13462000D03*
X26670000Y13462000D03*
X26670000Y70866000D03*
X98171000Y38989000D03*
X98171000Y25273000D03*
X93218000Y57912000D03*
X92964000Y39116000D03*
X99118840Y43619840D03*
X99187000Y27813000D03*
X103251000Y30099000D03*
X103650999Y52723999D03*
X94089001Y33799999D03*
X94089001Y46337001D03*
X42164000Y86106000D03*
X42575000Y72390000D03*
X45369000Y83566000D03*
X26065000Y82042000D03*
X37241000Y78594001D03*
X23368000Y85598000D03*
X37241000Y85598000D03*
X64008000Y15113000D03*
X27432000Y14986000D03*
X47498000Y14986000D03*
X64008000Y12573000D03*
X27432000Y72136000D03*
X24130000Y60960000D03*
X85344000Y23876000D03*
X85090000Y42672000D03*
X18034000Y64516000D03*
X18034000Y61651499D03*
X24130000Y23114000D03*
X47498000Y24130000D03*
X49617364Y69896424D03*
X50292000Y23114000D03*
X70515000Y22606000D03*
X49941000Y47752000D03*
X72390000Y47752000D03*
X25908000Y56896000D03*
X25908000Y25146000D03*
X25908000Y90424000D03*
X84582000Y29972000D03*
X45593000Y90424000D03*
X84582000Y24638000D03*
X48925000Y24892000D03*
X13970000Y54356000D03*
X13970000Y59436000D03*
X18034000Y22860000D03*
X18132511Y59235859D03*
X45021500Y22669500D03*
X81788000Y23114000D03*
X50449000Y78486000D03*
X63500000Y60706000D03*
X75946000Y60452000D03*
X76226510Y23140510D03*
X63282990Y78232000D03*
X50449000Y75692000D03*
X33274000Y71590500D03*
X44958000Y14224000D03*
X33274000Y14224000D03*
X33274000Y69596000D03*
X51308000Y68326000D03*
X41559000Y68326000D03*
X35306000Y68326000D03*
X51308000Y72136000D03*
X34447000Y83058000D03*
X18288000Y82804000D03*
X58674000Y67310000D03*
X59085000Y72136000D03*
X39370000Y67310000D03*
X77724000Y37592000D03*
X61625000Y61722000D03*
X37338000Y25871010D03*
X78643000Y61722000D03*
X77643205Y25363010D03*
X44861000Y65169000D03*
X41813000Y74676000D03*
X67721000Y67056000D03*
X67975000Y69596000D03*
X50317701Y65155299D03*
X50449000Y69342000D03*
X60960000Y65532000D03*
X18288000Y65786000D03*
X28351000Y76708000D03*
X35971000Y76454000D03*
X70769000Y75946000D03*
X69245000Y42672000D03*
X46893000Y42672000D03*
X43688000Y81280000D03*
X56037000Y89408000D03*
M02*
