%TF.GenerationSoftware,KiCad,Pcbnew,7.0.2-0*%
%TF.CreationDate,2023-05-22T09:33:56+09:00*%
%TF.ProjectId,SBC6808_Rev5,53424336-3830-4385-9f52-6576352e6b69,Rev5*%
%TF.SameCoordinates,PX3e22018PY9119050*%
%TF.FileFunction,Legend,Top*%
%TF.FilePolarity,Positive*%
%FSLAX46Y46*%
G04 Gerber Fmt 4.6, Leading zero omitted, Abs format (unit mm)*
G04 Created by KiCad (PCBNEW 7.0.2-0) date 2023-05-22 09:33:56*
%MOMM*%
%LPD*%
G01*
G04 APERTURE LIST*
%ADD10C,0.150000*%
%ADD11C,0.120000*%
G04 APERTURE END LIST*
D10*
X43029524Y28128143D02*
X43077143Y28175762D01*
X43077143Y28175762D02*
X43172381Y28223381D01*
X43172381Y28223381D02*
X43410476Y28223381D01*
X43410476Y28223381D02*
X43505714Y28175762D01*
X43505714Y28175762D02*
X43553333Y28128143D01*
X43553333Y28128143D02*
X43600952Y28032905D01*
X43600952Y28032905D02*
X43600952Y27937667D01*
X43600952Y27937667D02*
X43553333Y27794810D01*
X43553333Y27794810D02*
X42981905Y27223381D01*
X42981905Y27223381D02*
X43600952Y27223381D01*
X43934286Y28223381D02*
X44600952Y28223381D01*
X44600952Y28223381D02*
X44172381Y27223381D01*
X45553333Y27318620D02*
X45505714Y27271000D01*
X45505714Y27271000D02*
X45362857Y27223381D01*
X45362857Y27223381D02*
X45267619Y27223381D01*
X45267619Y27223381D02*
X45124762Y27271000D01*
X45124762Y27271000D02*
X45029524Y27366239D01*
X45029524Y27366239D02*
X44981905Y27461477D01*
X44981905Y27461477D02*
X44934286Y27651953D01*
X44934286Y27651953D02*
X44934286Y27794810D01*
X44934286Y27794810D02*
X44981905Y27985286D01*
X44981905Y27985286D02*
X45029524Y28080524D01*
X45029524Y28080524D02*
X45124762Y28175762D01*
X45124762Y28175762D02*
X45267619Y28223381D01*
X45267619Y28223381D02*
X45362857Y28223381D01*
X45362857Y28223381D02*
X45505714Y28175762D01*
X45505714Y28175762D02*
X45553333Y28128143D01*
X45934286Y28128143D02*
X45981905Y28175762D01*
X45981905Y28175762D02*
X46077143Y28223381D01*
X46077143Y28223381D02*
X46315238Y28223381D01*
X46315238Y28223381D02*
X46410476Y28175762D01*
X46410476Y28175762D02*
X46458095Y28128143D01*
X46458095Y28128143D02*
X46505714Y28032905D01*
X46505714Y28032905D02*
X46505714Y27937667D01*
X46505714Y27937667D02*
X46458095Y27794810D01*
X46458095Y27794810D02*
X45886667Y27223381D01*
X45886667Y27223381D02*
X46505714Y27223381D01*
X47410476Y28223381D02*
X46934286Y28223381D01*
X46934286Y28223381D02*
X46886667Y27747191D01*
X46886667Y27747191D02*
X46934286Y27794810D01*
X46934286Y27794810D02*
X47029524Y27842429D01*
X47029524Y27842429D02*
X47267619Y27842429D01*
X47267619Y27842429D02*
X47362857Y27794810D01*
X47362857Y27794810D02*
X47410476Y27747191D01*
X47410476Y27747191D02*
X47458095Y27651953D01*
X47458095Y27651953D02*
X47458095Y27413858D01*
X47458095Y27413858D02*
X47410476Y27318620D01*
X47410476Y27318620D02*
X47362857Y27271000D01*
X47362857Y27271000D02*
X47267619Y27223381D01*
X47267619Y27223381D02*
X47029524Y27223381D01*
X47029524Y27223381D02*
X46934286Y27271000D01*
X46934286Y27271000D02*
X46886667Y27318620D01*
X48315238Y28223381D02*
X48124762Y28223381D01*
X48124762Y28223381D02*
X48029524Y28175762D01*
X48029524Y28175762D02*
X47981905Y28128143D01*
X47981905Y28128143D02*
X47886667Y27985286D01*
X47886667Y27985286D02*
X47839048Y27794810D01*
X47839048Y27794810D02*
X47839048Y27413858D01*
X47839048Y27413858D02*
X47886667Y27318620D01*
X47886667Y27318620D02*
X47934286Y27271000D01*
X47934286Y27271000D02*
X48029524Y27223381D01*
X48029524Y27223381D02*
X48220000Y27223381D01*
X48220000Y27223381D02*
X48315238Y27271000D01*
X48315238Y27271000D02*
X48362857Y27318620D01*
X48362857Y27318620D02*
X48410476Y27413858D01*
X48410476Y27413858D02*
X48410476Y27651953D01*
X48410476Y27651953D02*
X48362857Y27747191D01*
X48362857Y27747191D02*
X48315238Y27794810D01*
X48315238Y27794810D02*
X48220000Y27842429D01*
X48220000Y27842429D02*
X48029524Y27842429D01*
X48029524Y27842429D02*
X47934286Y27794810D01*
X47934286Y27794810D02*
X47886667Y27747191D01*
X47886667Y27747191D02*
X47839048Y27651953D01*
X62159143Y27223381D02*
X62159143Y28223381D01*
X62159143Y27747191D02*
X62730571Y27747191D01*
X62730571Y27223381D02*
X62730571Y28223381D01*
X63206762Y27223381D02*
X63206762Y28223381D01*
X63206762Y28223381D02*
X63540095Y27509096D01*
X63540095Y27509096D02*
X63873428Y28223381D01*
X63873428Y28223381D02*
X63873428Y27223381D01*
X64778190Y28223381D02*
X64587714Y28223381D01*
X64587714Y28223381D02*
X64492476Y28175762D01*
X64492476Y28175762D02*
X64444857Y28128143D01*
X64444857Y28128143D02*
X64349619Y27985286D01*
X64349619Y27985286D02*
X64302000Y27794810D01*
X64302000Y27794810D02*
X64302000Y27413858D01*
X64302000Y27413858D02*
X64349619Y27318620D01*
X64349619Y27318620D02*
X64397238Y27271000D01*
X64397238Y27271000D02*
X64492476Y27223381D01*
X64492476Y27223381D02*
X64682952Y27223381D01*
X64682952Y27223381D02*
X64778190Y27271000D01*
X64778190Y27271000D02*
X64825809Y27318620D01*
X64825809Y27318620D02*
X64873428Y27413858D01*
X64873428Y27413858D02*
X64873428Y27651953D01*
X64873428Y27651953D02*
X64825809Y27747191D01*
X64825809Y27747191D02*
X64778190Y27794810D01*
X64778190Y27794810D02*
X64682952Y27842429D01*
X64682952Y27842429D02*
X64492476Y27842429D01*
X64492476Y27842429D02*
X64397238Y27794810D01*
X64397238Y27794810D02*
X64349619Y27747191D01*
X64349619Y27747191D02*
X64302000Y27651953D01*
X65254381Y28128143D02*
X65302000Y28175762D01*
X65302000Y28175762D02*
X65397238Y28223381D01*
X65397238Y28223381D02*
X65635333Y28223381D01*
X65635333Y28223381D02*
X65730571Y28175762D01*
X65730571Y28175762D02*
X65778190Y28128143D01*
X65778190Y28128143D02*
X65825809Y28032905D01*
X65825809Y28032905D02*
X65825809Y27937667D01*
X65825809Y27937667D02*
X65778190Y27794810D01*
X65778190Y27794810D02*
X65206762Y27223381D01*
X65206762Y27223381D02*
X65825809Y27223381D01*
X66206762Y28128143D02*
X66254381Y28175762D01*
X66254381Y28175762D02*
X66349619Y28223381D01*
X66349619Y28223381D02*
X66587714Y28223381D01*
X66587714Y28223381D02*
X66682952Y28175762D01*
X66682952Y28175762D02*
X66730571Y28128143D01*
X66730571Y28128143D02*
X66778190Y28032905D01*
X66778190Y28032905D02*
X66778190Y27937667D01*
X66778190Y27937667D02*
X66730571Y27794810D01*
X66730571Y27794810D02*
X66159143Y27223381D01*
X66159143Y27223381D02*
X66778190Y27223381D01*
X67682952Y28223381D02*
X67206762Y28223381D01*
X67206762Y28223381D02*
X67159143Y27747191D01*
X67159143Y27747191D02*
X67206762Y27794810D01*
X67206762Y27794810D02*
X67302000Y27842429D01*
X67302000Y27842429D02*
X67540095Y27842429D01*
X67540095Y27842429D02*
X67635333Y27794810D01*
X67635333Y27794810D02*
X67682952Y27747191D01*
X67682952Y27747191D02*
X67730571Y27651953D01*
X67730571Y27651953D02*
X67730571Y27413858D01*
X67730571Y27413858D02*
X67682952Y27318620D01*
X67682952Y27318620D02*
X67635333Y27271000D01*
X67635333Y27271000D02*
X67540095Y27223381D01*
X67540095Y27223381D02*
X67302000Y27223381D01*
X67302000Y27223381D02*
X67206762Y27271000D01*
X67206762Y27271000D02*
X67159143Y27318620D01*
X68587714Y28223381D02*
X68397238Y28223381D01*
X68397238Y28223381D02*
X68302000Y28175762D01*
X68302000Y28175762D02*
X68254381Y28128143D01*
X68254381Y28128143D02*
X68159143Y27985286D01*
X68159143Y27985286D02*
X68111524Y27794810D01*
X68111524Y27794810D02*
X68111524Y27413858D01*
X68111524Y27413858D02*
X68159143Y27318620D01*
X68159143Y27318620D02*
X68206762Y27271000D01*
X68206762Y27271000D02*
X68302000Y27223381D01*
X68302000Y27223381D02*
X68492476Y27223381D01*
X68492476Y27223381D02*
X68587714Y27271000D01*
X68587714Y27271000D02*
X68635333Y27318620D01*
X68635333Y27318620D02*
X68682952Y27413858D01*
X68682952Y27413858D02*
X68682952Y27651953D01*
X68682952Y27651953D02*
X68635333Y27747191D01*
X68635333Y27747191D02*
X68587714Y27794810D01*
X68587714Y27794810D02*
X68492476Y27842429D01*
X68492476Y27842429D02*
X68302000Y27842429D01*
X68302000Y27842429D02*
X68206762Y27794810D01*
X68206762Y27794810D02*
X68159143Y27747191D01*
X68159143Y27747191D02*
X68111524Y27651953D01*
X69444857Y27747191D02*
X69587714Y27699572D01*
X69587714Y27699572D02*
X69635333Y27651953D01*
X69635333Y27651953D02*
X69682952Y27556715D01*
X69682952Y27556715D02*
X69682952Y27413858D01*
X69682952Y27413858D02*
X69635333Y27318620D01*
X69635333Y27318620D02*
X69587714Y27271000D01*
X69587714Y27271000D02*
X69492476Y27223381D01*
X69492476Y27223381D02*
X69111524Y27223381D01*
X69111524Y27223381D02*
X69111524Y28223381D01*
X69111524Y28223381D02*
X69444857Y28223381D01*
X69444857Y28223381D02*
X69540095Y28175762D01*
X69540095Y28175762D02*
X69587714Y28128143D01*
X69587714Y28128143D02*
X69635333Y28032905D01*
X69635333Y28032905D02*
X69635333Y27937667D01*
X69635333Y27937667D02*
X69587714Y27842429D01*
X69587714Y27842429D02*
X69540095Y27794810D01*
X69540095Y27794810D02*
X69444857Y27747191D01*
X69444857Y27747191D02*
X69111524Y27747191D01*
X70587714Y27223381D02*
X70111524Y27223381D01*
X70111524Y27223381D02*
X70111524Y28223381D01*
X70921048Y27223381D02*
X70921048Y28223381D01*
X70921048Y28223381D02*
X71302000Y28223381D01*
X71302000Y28223381D02*
X71397238Y28175762D01*
X71397238Y28175762D02*
X71444857Y28128143D01*
X71444857Y28128143D02*
X71492476Y28032905D01*
X71492476Y28032905D02*
X71492476Y27890048D01*
X71492476Y27890048D02*
X71444857Y27794810D01*
X71444857Y27794810D02*
X71397238Y27747191D01*
X71397238Y27747191D02*
X71302000Y27699572D01*
X71302000Y27699572D02*
X70921048Y27699572D01*
X85653905Y27223381D02*
X85653905Y28223381D01*
X85653905Y28223381D02*
X85987238Y27509096D01*
X85987238Y27509096D02*
X86320571Y28223381D01*
X86320571Y28223381D02*
X86320571Y27223381D01*
X87368190Y27318620D02*
X87320571Y27271000D01*
X87320571Y27271000D02*
X87177714Y27223381D01*
X87177714Y27223381D02*
X87082476Y27223381D01*
X87082476Y27223381D02*
X86939619Y27271000D01*
X86939619Y27271000D02*
X86844381Y27366239D01*
X86844381Y27366239D02*
X86796762Y27461477D01*
X86796762Y27461477D02*
X86749143Y27651953D01*
X86749143Y27651953D02*
X86749143Y27794810D01*
X86749143Y27794810D02*
X86796762Y27985286D01*
X86796762Y27985286D02*
X86844381Y28080524D01*
X86844381Y28080524D02*
X86939619Y28175762D01*
X86939619Y28175762D02*
X87082476Y28223381D01*
X87082476Y28223381D02*
X87177714Y28223381D01*
X87177714Y28223381D02*
X87320571Y28175762D01*
X87320571Y28175762D02*
X87368190Y28128143D01*
X88225333Y28223381D02*
X88034857Y28223381D01*
X88034857Y28223381D02*
X87939619Y28175762D01*
X87939619Y28175762D02*
X87892000Y28128143D01*
X87892000Y28128143D02*
X87796762Y27985286D01*
X87796762Y27985286D02*
X87749143Y27794810D01*
X87749143Y27794810D02*
X87749143Y27413858D01*
X87749143Y27413858D02*
X87796762Y27318620D01*
X87796762Y27318620D02*
X87844381Y27271000D01*
X87844381Y27271000D02*
X87939619Y27223381D01*
X87939619Y27223381D02*
X88130095Y27223381D01*
X88130095Y27223381D02*
X88225333Y27271000D01*
X88225333Y27271000D02*
X88272952Y27318620D01*
X88272952Y27318620D02*
X88320571Y27413858D01*
X88320571Y27413858D02*
X88320571Y27651953D01*
X88320571Y27651953D02*
X88272952Y27747191D01*
X88272952Y27747191D02*
X88225333Y27794810D01*
X88225333Y27794810D02*
X88130095Y27842429D01*
X88130095Y27842429D02*
X87939619Y27842429D01*
X87939619Y27842429D02*
X87844381Y27794810D01*
X87844381Y27794810D02*
X87796762Y27747191D01*
X87796762Y27747191D02*
X87749143Y27651953D01*
X88892000Y27794810D02*
X88796762Y27842429D01*
X88796762Y27842429D02*
X88749143Y27890048D01*
X88749143Y27890048D02*
X88701524Y27985286D01*
X88701524Y27985286D02*
X88701524Y28032905D01*
X88701524Y28032905D02*
X88749143Y28128143D01*
X88749143Y28128143D02*
X88796762Y28175762D01*
X88796762Y28175762D02*
X88892000Y28223381D01*
X88892000Y28223381D02*
X89082476Y28223381D01*
X89082476Y28223381D02*
X89177714Y28175762D01*
X89177714Y28175762D02*
X89225333Y28128143D01*
X89225333Y28128143D02*
X89272952Y28032905D01*
X89272952Y28032905D02*
X89272952Y27985286D01*
X89272952Y27985286D02*
X89225333Y27890048D01*
X89225333Y27890048D02*
X89177714Y27842429D01*
X89177714Y27842429D02*
X89082476Y27794810D01*
X89082476Y27794810D02*
X88892000Y27794810D01*
X88892000Y27794810D02*
X88796762Y27747191D01*
X88796762Y27747191D02*
X88749143Y27699572D01*
X88749143Y27699572D02*
X88701524Y27604334D01*
X88701524Y27604334D02*
X88701524Y27413858D01*
X88701524Y27413858D02*
X88749143Y27318620D01*
X88749143Y27318620D02*
X88796762Y27271000D01*
X88796762Y27271000D02*
X88892000Y27223381D01*
X88892000Y27223381D02*
X89082476Y27223381D01*
X89082476Y27223381D02*
X89177714Y27271000D01*
X89177714Y27271000D02*
X89225333Y27318620D01*
X89225333Y27318620D02*
X89272952Y27413858D01*
X89272952Y27413858D02*
X89272952Y27604334D01*
X89272952Y27604334D02*
X89225333Y27699572D01*
X89225333Y27699572D02*
X89177714Y27747191D01*
X89177714Y27747191D02*
X89082476Y27794810D01*
X90177714Y28223381D02*
X89701524Y28223381D01*
X89701524Y28223381D02*
X89653905Y27747191D01*
X89653905Y27747191D02*
X89701524Y27794810D01*
X89701524Y27794810D02*
X89796762Y27842429D01*
X89796762Y27842429D02*
X90034857Y27842429D01*
X90034857Y27842429D02*
X90130095Y27794810D01*
X90130095Y27794810D02*
X90177714Y27747191D01*
X90177714Y27747191D02*
X90225333Y27651953D01*
X90225333Y27651953D02*
X90225333Y27413858D01*
X90225333Y27413858D02*
X90177714Y27318620D01*
X90177714Y27318620D02*
X90130095Y27271000D01*
X90130095Y27271000D02*
X90034857Y27223381D01*
X90034857Y27223381D02*
X89796762Y27223381D01*
X89796762Y27223381D02*
X89701524Y27271000D01*
X89701524Y27271000D02*
X89653905Y27318620D01*
X90844381Y28223381D02*
X90939619Y28223381D01*
X90939619Y28223381D02*
X91034857Y28175762D01*
X91034857Y28175762D02*
X91082476Y28128143D01*
X91082476Y28128143D02*
X91130095Y28032905D01*
X91130095Y28032905D02*
X91177714Y27842429D01*
X91177714Y27842429D02*
X91177714Y27604334D01*
X91177714Y27604334D02*
X91130095Y27413858D01*
X91130095Y27413858D02*
X91082476Y27318620D01*
X91082476Y27318620D02*
X91034857Y27271000D01*
X91034857Y27271000D02*
X90939619Y27223381D01*
X90939619Y27223381D02*
X90844381Y27223381D01*
X90844381Y27223381D02*
X90749143Y27271000D01*
X90749143Y27271000D02*
X90701524Y27318620D01*
X90701524Y27318620D02*
X90653905Y27413858D01*
X90653905Y27413858D02*
X90606286Y27604334D01*
X90606286Y27604334D02*
X90606286Y27842429D01*
X90606286Y27842429D02*
X90653905Y28032905D01*
X90653905Y28032905D02*
X90701524Y28128143D01*
X90701524Y28128143D02*
X90749143Y28175762D01*
X90749143Y28175762D02*
X90844381Y28223381D01*
X20629905Y21127381D02*
X20629905Y22127381D01*
X20629905Y22127381D02*
X20963238Y21413096D01*
X20963238Y21413096D02*
X21296571Y22127381D01*
X21296571Y22127381D02*
X21296571Y21127381D01*
X22344190Y21222620D02*
X22296571Y21175000D01*
X22296571Y21175000D02*
X22153714Y21127381D01*
X22153714Y21127381D02*
X22058476Y21127381D01*
X22058476Y21127381D02*
X21915619Y21175000D01*
X21915619Y21175000D02*
X21820381Y21270239D01*
X21820381Y21270239D02*
X21772762Y21365477D01*
X21772762Y21365477D02*
X21725143Y21555953D01*
X21725143Y21555953D02*
X21725143Y21698810D01*
X21725143Y21698810D02*
X21772762Y21889286D01*
X21772762Y21889286D02*
X21820381Y21984524D01*
X21820381Y21984524D02*
X21915619Y22079762D01*
X21915619Y22079762D02*
X22058476Y22127381D01*
X22058476Y22127381D02*
X22153714Y22127381D01*
X22153714Y22127381D02*
X22296571Y22079762D01*
X22296571Y22079762D02*
X22344190Y22032143D01*
X23201333Y22127381D02*
X23010857Y22127381D01*
X23010857Y22127381D02*
X22915619Y22079762D01*
X22915619Y22079762D02*
X22868000Y22032143D01*
X22868000Y22032143D02*
X22772762Y21889286D01*
X22772762Y21889286D02*
X22725143Y21698810D01*
X22725143Y21698810D02*
X22725143Y21317858D01*
X22725143Y21317858D02*
X22772762Y21222620D01*
X22772762Y21222620D02*
X22820381Y21175000D01*
X22820381Y21175000D02*
X22915619Y21127381D01*
X22915619Y21127381D02*
X23106095Y21127381D01*
X23106095Y21127381D02*
X23201333Y21175000D01*
X23201333Y21175000D02*
X23248952Y21222620D01*
X23248952Y21222620D02*
X23296571Y21317858D01*
X23296571Y21317858D02*
X23296571Y21555953D01*
X23296571Y21555953D02*
X23248952Y21651191D01*
X23248952Y21651191D02*
X23201333Y21698810D01*
X23201333Y21698810D02*
X23106095Y21746429D01*
X23106095Y21746429D02*
X22915619Y21746429D01*
X22915619Y21746429D02*
X22820381Y21698810D01*
X22820381Y21698810D02*
X22772762Y21651191D01*
X22772762Y21651191D02*
X22725143Y21555953D01*
X23868000Y21698810D02*
X23772762Y21746429D01*
X23772762Y21746429D02*
X23725143Y21794048D01*
X23725143Y21794048D02*
X23677524Y21889286D01*
X23677524Y21889286D02*
X23677524Y21936905D01*
X23677524Y21936905D02*
X23725143Y22032143D01*
X23725143Y22032143D02*
X23772762Y22079762D01*
X23772762Y22079762D02*
X23868000Y22127381D01*
X23868000Y22127381D02*
X24058476Y22127381D01*
X24058476Y22127381D02*
X24153714Y22079762D01*
X24153714Y22079762D02*
X24201333Y22032143D01*
X24201333Y22032143D02*
X24248952Y21936905D01*
X24248952Y21936905D02*
X24248952Y21889286D01*
X24248952Y21889286D02*
X24201333Y21794048D01*
X24201333Y21794048D02*
X24153714Y21746429D01*
X24153714Y21746429D02*
X24058476Y21698810D01*
X24058476Y21698810D02*
X23868000Y21698810D01*
X23868000Y21698810D02*
X23772762Y21651191D01*
X23772762Y21651191D02*
X23725143Y21603572D01*
X23725143Y21603572D02*
X23677524Y21508334D01*
X23677524Y21508334D02*
X23677524Y21317858D01*
X23677524Y21317858D02*
X23725143Y21222620D01*
X23725143Y21222620D02*
X23772762Y21175000D01*
X23772762Y21175000D02*
X23868000Y21127381D01*
X23868000Y21127381D02*
X24058476Y21127381D01*
X24058476Y21127381D02*
X24153714Y21175000D01*
X24153714Y21175000D02*
X24201333Y21222620D01*
X24201333Y21222620D02*
X24248952Y21317858D01*
X24248952Y21317858D02*
X24248952Y21508334D01*
X24248952Y21508334D02*
X24201333Y21603572D01*
X24201333Y21603572D02*
X24153714Y21651191D01*
X24153714Y21651191D02*
X24058476Y21698810D01*
X24868000Y22127381D02*
X24963238Y22127381D01*
X24963238Y22127381D02*
X25058476Y22079762D01*
X25058476Y22079762D02*
X25106095Y22032143D01*
X25106095Y22032143D02*
X25153714Y21936905D01*
X25153714Y21936905D02*
X25201333Y21746429D01*
X25201333Y21746429D02*
X25201333Y21508334D01*
X25201333Y21508334D02*
X25153714Y21317858D01*
X25153714Y21317858D02*
X25106095Y21222620D01*
X25106095Y21222620D02*
X25058476Y21175000D01*
X25058476Y21175000D02*
X24963238Y21127381D01*
X24963238Y21127381D02*
X24868000Y21127381D01*
X24868000Y21127381D02*
X24772762Y21175000D01*
X24772762Y21175000D02*
X24725143Y21222620D01*
X24725143Y21222620D02*
X24677524Y21317858D01*
X24677524Y21317858D02*
X24629905Y21508334D01*
X24629905Y21508334D02*
X24629905Y21746429D01*
X24629905Y21746429D02*
X24677524Y21936905D01*
X24677524Y21936905D02*
X24725143Y22032143D01*
X24725143Y22032143D02*
X24772762Y22079762D01*
X24772762Y22079762D02*
X24868000Y22127381D01*
X25772762Y21698810D02*
X25677524Y21746429D01*
X25677524Y21746429D02*
X25629905Y21794048D01*
X25629905Y21794048D02*
X25582286Y21889286D01*
X25582286Y21889286D02*
X25582286Y21936905D01*
X25582286Y21936905D02*
X25629905Y22032143D01*
X25629905Y22032143D02*
X25677524Y22079762D01*
X25677524Y22079762D02*
X25772762Y22127381D01*
X25772762Y22127381D02*
X25963238Y22127381D01*
X25963238Y22127381D02*
X26058476Y22079762D01*
X26058476Y22079762D02*
X26106095Y22032143D01*
X26106095Y22032143D02*
X26153714Y21936905D01*
X26153714Y21936905D02*
X26153714Y21889286D01*
X26153714Y21889286D02*
X26106095Y21794048D01*
X26106095Y21794048D02*
X26058476Y21746429D01*
X26058476Y21746429D02*
X25963238Y21698810D01*
X25963238Y21698810D02*
X25772762Y21698810D01*
X25772762Y21698810D02*
X25677524Y21651191D01*
X25677524Y21651191D02*
X25629905Y21603572D01*
X25629905Y21603572D02*
X25582286Y21508334D01*
X25582286Y21508334D02*
X25582286Y21317858D01*
X25582286Y21317858D02*
X25629905Y21222620D01*
X25629905Y21222620D02*
X25677524Y21175000D01*
X25677524Y21175000D02*
X25772762Y21127381D01*
X25772762Y21127381D02*
X25963238Y21127381D01*
X25963238Y21127381D02*
X26058476Y21175000D01*
X26058476Y21175000D02*
X26106095Y21222620D01*
X26106095Y21222620D02*
X26153714Y21317858D01*
X26153714Y21317858D02*
X26153714Y21508334D01*
X26153714Y21508334D02*
X26106095Y21603572D01*
X26106095Y21603572D02*
X26058476Y21651191D01*
X26058476Y21651191D02*
X25963238Y21698810D01*
X32736619Y80923144D02*
X32736619Y81589810D01*
X32736619Y81589810D02*
X33736619Y81161239D01*
X33069952Y82399334D02*
X33736619Y82399334D01*
X32689000Y82161239D02*
X33403285Y81923144D01*
X33403285Y81923144D02*
X33403285Y82542191D01*
X33736619Y83399334D02*
X33736619Y82923144D01*
X33736619Y82923144D02*
X32736619Y82923144D01*
X33689000Y83685049D02*
X33736619Y83827906D01*
X33736619Y83827906D02*
X33736619Y84066001D01*
X33736619Y84066001D02*
X33689000Y84161239D01*
X33689000Y84161239D02*
X33641380Y84208858D01*
X33641380Y84208858D02*
X33546142Y84256477D01*
X33546142Y84256477D02*
X33450904Y84256477D01*
X33450904Y84256477D02*
X33355666Y84208858D01*
X33355666Y84208858D02*
X33308047Y84161239D01*
X33308047Y84161239D02*
X33260428Y84066001D01*
X33260428Y84066001D02*
X33212809Y83875525D01*
X33212809Y83875525D02*
X33165190Y83780287D01*
X33165190Y83780287D02*
X33117571Y83732668D01*
X33117571Y83732668D02*
X33022333Y83685049D01*
X33022333Y83685049D02*
X32927095Y83685049D01*
X32927095Y83685049D02*
X32831857Y83732668D01*
X32831857Y83732668D02*
X32784238Y83780287D01*
X32784238Y83780287D02*
X32736619Y83875525D01*
X32736619Y83875525D02*
X32736619Y84113620D01*
X32736619Y84113620D02*
X32784238Y84256477D01*
X32736619Y84875525D02*
X32736619Y84970763D01*
X32736619Y84970763D02*
X32784238Y85066001D01*
X32784238Y85066001D02*
X32831857Y85113620D01*
X32831857Y85113620D02*
X32927095Y85161239D01*
X32927095Y85161239D02*
X33117571Y85208858D01*
X33117571Y85208858D02*
X33355666Y85208858D01*
X33355666Y85208858D02*
X33546142Y85161239D01*
X33546142Y85161239D02*
X33641380Y85113620D01*
X33641380Y85113620D02*
X33689000Y85066001D01*
X33689000Y85066001D02*
X33736619Y84970763D01*
X33736619Y84970763D02*
X33736619Y84875525D01*
X33736619Y84875525D02*
X33689000Y84780287D01*
X33689000Y84780287D02*
X33641380Y84732668D01*
X33641380Y84732668D02*
X33546142Y84685049D01*
X33546142Y84685049D02*
X33355666Y84637430D01*
X33355666Y84637430D02*
X33117571Y84637430D01*
X33117571Y84637430D02*
X32927095Y84685049D01*
X32927095Y84685049D02*
X32831857Y84732668D01*
X32831857Y84732668D02*
X32784238Y84780287D01*
X32784238Y84780287D02*
X32736619Y84875525D01*
X33165190Y85780287D02*
X33117571Y85685049D01*
X33117571Y85685049D02*
X33069952Y85637430D01*
X33069952Y85637430D02*
X32974714Y85589811D01*
X32974714Y85589811D02*
X32927095Y85589811D01*
X32927095Y85589811D02*
X32831857Y85637430D01*
X32831857Y85637430D02*
X32784238Y85685049D01*
X32784238Y85685049D02*
X32736619Y85780287D01*
X32736619Y85780287D02*
X32736619Y85970763D01*
X32736619Y85970763D02*
X32784238Y86066001D01*
X32784238Y86066001D02*
X32831857Y86113620D01*
X32831857Y86113620D02*
X32927095Y86161239D01*
X32927095Y86161239D02*
X32974714Y86161239D01*
X32974714Y86161239D02*
X33069952Y86113620D01*
X33069952Y86113620D02*
X33117571Y86066001D01*
X33117571Y86066001D02*
X33165190Y85970763D01*
X33165190Y85970763D02*
X33165190Y85780287D01*
X33165190Y85780287D02*
X33212809Y85685049D01*
X33212809Y85685049D02*
X33260428Y85637430D01*
X33260428Y85637430D02*
X33355666Y85589811D01*
X33355666Y85589811D02*
X33546142Y85589811D01*
X33546142Y85589811D02*
X33641380Y85637430D01*
X33641380Y85637430D02*
X33689000Y85685049D01*
X33689000Y85685049D02*
X33736619Y85780287D01*
X33736619Y85780287D02*
X33736619Y85970763D01*
X33736619Y85970763D02*
X33689000Y86066001D01*
X33689000Y86066001D02*
X33641380Y86113620D01*
X33641380Y86113620D02*
X33546142Y86161239D01*
X33546142Y86161239D02*
X33355666Y86161239D01*
X33355666Y86161239D02*
X33260428Y86113620D01*
X33260428Y86113620D02*
X33212809Y86066001D01*
X33212809Y86066001D02*
X33165190Y85970763D01*
X41045143Y90199381D02*
X41711809Y90199381D01*
X41711809Y90199381D02*
X41283238Y89199381D01*
X42521333Y89866048D02*
X42521333Y89199381D01*
X42283238Y90247000D02*
X42045143Y89532715D01*
X42045143Y89532715D02*
X42664190Y89532715D01*
X43521333Y89199381D02*
X43045143Y89199381D01*
X43045143Y89199381D02*
X43045143Y90199381D01*
X43807048Y89247000D02*
X43949905Y89199381D01*
X43949905Y89199381D02*
X44188000Y89199381D01*
X44188000Y89199381D02*
X44283238Y89247000D01*
X44283238Y89247000D02*
X44330857Y89294620D01*
X44330857Y89294620D02*
X44378476Y89389858D01*
X44378476Y89389858D02*
X44378476Y89485096D01*
X44378476Y89485096D02*
X44330857Y89580334D01*
X44330857Y89580334D02*
X44283238Y89627953D01*
X44283238Y89627953D02*
X44188000Y89675572D01*
X44188000Y89675572D02*
X43997524Y89723191D01*
X43997524Y89723191D02*
X43902286Y89770810D01*
X43902286Y89770810D02*
X43854667Y89818429D01*
X43854667Y89818429D02*
X43807048Y89913667D01*
X43807048Y89913667D02*
X43807048Y90008905D01*
X43807048Y90008905D02*
X43854667Y90104143D01*
X43854667Y90104143D02*
X43902286Y90151762D01*
X43902286Y90151762D02*
X43997524Y90199381D01*
X43997524Y90199381D02*
X44235619Y90199381D01*
X44235619Y90199381D02*
X44378476Y90151762D01*
X44997524Y90199381D02*
X45092762Y90199381D01*
X45092762Y90199381D02*
X45188000Y90151762D01*
X45188000Y90151762D02*
X45235619Y90104143D01*
X45235619Y90104143D02*
X45283238Y90008905D01*
X45283238Y90008905D02*
X45330857Y89818429D01*
X45330857Y89818429D02*
X45330857Y89580334D01*
X45330857Y89580334D02*
X45283238Y89389858D01*
X45283238Y89389858D02*
X45235619Y89294620D01*
X45235619Y89294620D02*
X45188000Y89247000D01*
X45188000Y89247000D02*
X45092762Y89199381D01*
X45092762Y89199381D02*
X44997524Y89199381D01*
X44997524Y89199381D02*
X44902286Y89247000D01*
X44902286Y89247000D02*
X44854667Y89294620D01*
X44854667Y89294620D02*
X44807048Y89389858D01*
X44807048Y89389858D02*
X44759429Y89580334D01*
X44759429Y89580334D02*
X44759429Y89818429D01*
X44759429Y89818429D02*
X44807048Y90008905D01*
X44807048Y90008905D02*
X44854667Y90104143D01*
X44854667Y90104143D02*
X44902286Y90151762D01*
X44902286Y90151762D02*
X44997524Y90199381D01*
X46188000Y89866048D02*
X46188000Y89199381D01*
X45949905Y90247000D02*
X45711810Y89532715D01*
X45711810Y89532715D02*
X46330857Y89532715D01*
X106630523Y34920381D02*
X106297190Y35396572D01*
X106059095Y34920381D02*
X106059095Y35920381D01*
X106059095Y35920381D02*
X106440047Y35920381D01*
X106440047Y35920381D02*
X106535285Y35872762D01*
X106535285Y35872762D02*
X106582904Y35825143D01*
X106582904Y35825143D02*
X106630523Y35729905D01*
X106630523Y35729905D02*
X106630523Y35587048D01*
X106630523Y35587048D02*
X106582904Y35491810D01*
X106582904Y35491810D02*
X106535285Y35444191D01*
X106535285Y35444191D02*
X106440047Y35396572D01*
X106440047Y35396572D02*
X106059095Y35396572D01*
X106916238Y35920381D02*
X107487666Y35920381D01*
X107201952Y34920381D02*
X107201952Y35920381D01*
X107773381Y34968000D02*
X107916238Y34920381D01*
X107916238Y34920381D02*
X108154333Y34920381D01*
X108154333Y34920381D02*
X108249571Y34968000D01*
X108249571Y34968000D02*
X108297190Y35015620D01*
X108297190Y35015620D02*
X108344809Y35110858D01*
X108344809Y35110858D02*
X108344809Y35206096D01*
X108344809Y35206096D02*
X108297190Y35301334D01*
X108297190Y35301334D02*
X108249571Y35348953D01*
X108249571Y35348953D02*
X108154333Y35396572D01*
X108154333Y35396572D02*
X107963857Y35444191D01*
X107963857Y35444191D02*
X107868619Y35491810D01*
X107868619Y35491810D02*
X107821000Y35539429D01*
X107821000Y35539429D02*
X107773381Y35634667D01*
X107773381Y35634667D02*
X107773381Y35729905D01*
X107773381Y35729905D02*
X107821000Y35825143D01*
X107821000Y35825143D02*
X107868619Y35872762D01*
X107868619Y35872762D02*
X107963857Y35920381D01*
X107963857Y35920381D02*
X108201952Y35920381D01*
X108201952Y35920381D02*
X108344809Y35872762D01*
X12088000Y20408858D02*
X12088000Y19608858D01*
X11802285Y20866000D02*
X11516571Y20008858D01*
X11516571Y20008858D02*
X12259428Y20008858D01*
X12602285Y20808858D02*
X13402285Y20808858D01*
X13402285Y20808858D02*
X12887999Y19608858D01*
X13859428Y19608858D02*
X13859428Y20808858D01*
X14545142Y19608858D02*
X14030856Y20294572D01*
X14545142Y20808858D02*
X13859428Y20123143D01*
X106630523Y29840381D02*
X106297190Y30316572D01*
X106059095Y29840381D02*
X106059095Y30840381D01*
X106059095Y30840381D02*
X106440047Y30840381D01*
X106440047Y30840381D02*
X106535285Y30792762D01*
X106535285Y30792762D02*
X106582904Y30745143D01*
X106582904Y30745143D02*
X106630523Y30649905D01*
X106630523Y30649905D02*
X106630523Y30507048D01*
X106630523Y30507048D02*
X106582904Y30411810D01*
X106582904Y30411810D02*
X106535285Y30364191D01*
X106535285Y30364191D02*
X106440047Y30316572D01*
X106440047Y30316572D02*
X106059095Y30316572D01*
X106963857Y30840381D02*
X107630523Y29840381D01*
X107630523Y30840381D02*
X106963857Y29840381D01*
X108011476Y29840381D02*
X108011476Y30840381D01*
X108011476Y30840381D02*
X108249571Y30840381D01*
X108249571Y30840381D02*
X108392428Y30792762D01*
X108392428Y30792762D02*
X108487666Y30697524D01*
X108487666Y30697524D02*
X108535285Y30602286D01*
X108535285Y30602286D02*
X108582904Y30411810D01*
X108582904Y30411810D02*
X108582904Y30268953D01*
X108582904Y30268953D02*
X108535285Y30078477D01*
X108535285Y30078477D02*
X108487666Y29983239D01*
X108487666Y29983239D02*
X108392428Y29888000D01*
X108392428Y29888000D02*
X108249571Y29840381D01*
X108249571Y29840381D02*
X108011476Y29840381D01*
X55300952Y90199381D02*
X55967618Y90199381D01*
X55967618Y90199381D02*
X55539047Y89199381D01*
X56777142Y89866048D02*
X56777142Y89199381D01*
X56539047Y90247000D02*
X56300952Y89532715D01*
X56300952Y89532715D02*
X56919999Y89532715D01*
X57777142Y89199381D02*
X57300952Y89199381D01*
X57300952Y89199381D02*
X57300952Y90199381D01*
X58062857Y89247000D02*
X58205714Y89199381D01*
X58205714Y89199381D02*
X58443809Y89199381D01*
X58443809Y89199381D02*
X58539047Y89247000D01*
X58539047Y89247000D02*
X58586666Y89294620D01*
X58586666Y89294620D02*
X58634285Y89389858D01*
X58634285Y89389858D02*
X58634285Y89485096D01*
X58634285Y89485096D02*
X58586666Y89580334D01*
X58586666Y89580334D02*
X58539047Y89627953D01*
X58539047Y89627953D02*
X58443809Y89675572D01*
X58443809Y89675572D02*
X58253333Y89723191D01*
X58253333Y89723191D02*
X58158095Y89770810D01*
X58158095Y89770810D02*
X58110476Y89818429D01*
X58110476Y89818429D02*
X58062857Y89913667D01*
X58062857Y89913667D02*
X58062857Y90008905D01*
X58062857Y90008905D02*
X58110476Y90104143D01*
X58110476Y90104143D02*
X58158095Y90151762D01*
X58158095Y90151762D02*
X58253333Y90199381D01*
X58253333Y90199381D02*
X58491428Y90199381D01*
X58491428Y90199381D02*
X58634285Y90151762D01*
X59586666Y89199381D02*
X59015238Y89199381D01*
X59300952Y89199381D02*
X59300952Y90199381D01*
X59300952Y90199381D02*
X59205714Y90056524D01*
X59205714Y90056524D02*
X59110476Y89961286D01*
X59110476Y89961286D02*
X59015238Y89913667D01*
X59920000Y90199381D02*
X60539047Y90199381D01*
X60539047Y90199381D02*
X60205714Y89818429D01*
X60205714Y89818429D02*
X60348571Y89818429D01*
X60348571Y89818429D02*
X60443809Y89770810D01*
X60443809Y89770810D02*
X60491428Y89723191D01*
X60491428Y89723191D02*
X60539047Y89627953D01*
X60539047Y89627953D02*
X60539047Y89389858D01*
X60539047Y89389858D02*
X60491428Y89294620D01*
X60491428Y89294620D02*
X60443809Y89247000D01*
X60443809Y89247000D02*
X60348571Y89199381D01*
X60348571Y89199381D02*
X60062857Y89199381D01*
X60062857Y89199381D02*
X59967619Y89247000D01*
X59967619Y89247000D02*
X59920000Y89294620D01*
X61110476Y89770810D02*
X61015238Y89818429D01*
X61015238Y89818429D02*
X60967619Y89866048D01*
X60967619Y89866048D02*
X60920000Y89961286D01*
X60920000Y89961286D02*
X60920000Y90008905D01*
X60920000Y90008905D02*
X60967619Y90104143D01*
X60967619Y90104143D02*
X61015238Y90151762D01*
X61015238Y90151762D02*
X61110476Y90199381D01*
X61110476Y90199381D02*
X61300952Y90199381D01*
X61300952Y90199381D02*
X61396190Y90151762D01*
X61396190Y90151762D02*
X61443809Y90104143D01*
X61443809Y90104143D02*
X61491428Y90008905D01*
X61491428Y90008905D02*
X61491428Y89961286D01*
X61491428Y89961286D02*
X61443809Y89866048D01*
X61443809Y89866048D02*
X61396190Y89818429D01*
X61396190Y89818429D02*
X61300952Y89770810D01*
X61300952Y89770810D02*
X61110476Y89770810D01*
X61110476Y89770810D02*
X61015238Y89723191D01*
X61015238Y89723191D02*
X60967619Y89675572D01*
X60967619Y89675572D02*
X60920000Y89580334D01*
X60920000Y89580334D02*
X60920000Y89389858D01*
X60920000Y89389858D02*
X60967619Y89294620D01*
X60967619Y89294620D02*
X61015238Y89247000D01*
X61015238Y89247000D02*
X61110476Y89199381D01*
X61110476Y89199381D02*
X61300952Y89199381D01*
X61300952Y89199381D02*
X61396190Y89247000D01*
X61396190Y89247000D02*
X61443809Y89294620D01*
X61443809Y89294620D02*
X61491428Y89389858D01*
X61491428Y89389858D02*
X61491428Y89580334D01*
X61491428Y89580334D02*
X61443809Y89675572D01*
X61443809Y89675572D02*
X61396190Y89723191D01*
X61396190Y89723191D02*
X61300952Y89770810D01*
X106630523Y24855620D02*
X106582904Y24808000D01*
X106582904Y24808000D02*
X106440047Y24760381D01*
X106440047Y24760381D02*
X106344809Y24760381D01*
X106344809Y24760381D02*
X106201952Y24808000D01*
X106201952Y24808000D02*
X106106714Y24903239D01*
X106106714Y24903239D02*
X106059095Y24998477D01*
X106059095Y24998477D02*
X106011476Y25188953D01*
X106011476Y25188953D02*
X106011476Y25331810D01*
X106011476Y25331810D02*
X106059095Y25522286D01*
X106059095Y25522286D02*
X106106714Y25617524D01*
X106106714Y25617524D02*
X106201952Y25712762D01*
X106201952Y25712762D02*
X106344809Y25760381D01*
X106344809Y25760381D02*
X106440047Y25760381D01*
X106440047Y25760381D02*
X106582904Y25712762D01*
X106582904Y25712762D02*
X106630523Y25665143D01*
X106916238Y25760381D02*
X107487666Y25760381D01*
X107201952Y24760381D02*
X107201952Y25760381D01*
X107773381Y24808000D02*
X107916238Y24760381D01*
X107916238Y24760381D02*
X108154333Y24760381D01*
X108154333Y24760381D02*
X108249571Y24808000D01*
X108249571Y24808000D02*
X108297190Y24855620D01*
X108297190Y24855620D02*
X108344809Y24950858D01*
X108344809Y24950858D02*
X108344809Y25046096D01*
X108344809Y25046096D02*
X108297190Y25141334D01*
X108297190Y25141334D02*
X108249571Y25188953D01*
X108249571Y25188953D02*
X108154333Y25236572D01*
X108154333Y25236572D02*
X107963857Y25284191D01*
X107963857Y25284191D02*
X107868619Y25331810D01*
X107868619Y25331810D02*
X107821000Y25379429D01*
X107821000Y25379429D02*
X107773381Y25474667D01*
X107773381Y25474667D02*
X107773381Y25569905D01*
X107773381Y25569905D02*
X107821000Y25665143D01*
X107821000Y25665143D02*
X107868619Y25712762D01*
X107868619Y25712762D02*
X107963857Y25760381D01*
X107963857Y25760381D02*
X108201952Y25760381D01*
X108201952Y25760381D02*
X108344809Y25712762D01*
X105916238Y28300381D02*
X106487666Y28300381D01*
X106201952Y27300381D02*
X106201952Y28300381D01*
X106725762Y28300381D02*
X107392428Y27300381D01*
X107392428Y28300381D02*
X106725762Y27300381D01*
X107773381Y27300381D02*
X107773381Y28300381D01*
X107773381Y28300381D02*
X108011476Y28300381D01*
X108011476Y28300381D02*
X108154333Y28252762D01*
X108154333Y28252762D02*
X108249571Y28157524D01*
X108249571Y28157524D02*
X108297190Y28062286D01*
X108297190Y28062286D02*
X108344809Y27871810D01*
X108344809Y27871810D02*
X108344809Y27728953D01*
X108344809Y27728953D02*
X108297190Y27538477D01*
X108297190Y27538477D02*
X108249571Y27443239D01*
X108249571Y27443239D02*
X108154333Y27348000D01*
X108154333Y27348000D02*
X108011476Y27300381D01*
X108011476Y27300381D02*
X107773381Y27300381D01*
X75483857Y90451048D02*
X75674333Y89784381D01*
X75674333Y89784381D02*
X75864809Y90260572D01*
X75864809Y90260572D02*
X76055285Y89784381D01*
X76055285Y89784381D02*
X76245761Y90451048D01*
X76626714Y89784381D02*
X76626714Y90784381D01*
X77055285Y89784381D02*
X77055285Y90308191D01*
X77055285Y90308191D02*
X77007666Y90403429D01*
X77007666Y90403429D02*
X76912428Y90451048D01*
X76912428Y90451048D02*
X76769571Y90451048D01*
X76769571Y90451048D02*
X76674333Y90403429D01*
X76674333Y90403429D02*
X76626714Y90355810D01*
X77912428Y89832000D02*
X77817190Y89784381D01*
X77817190Y89784381D02*
X77626714Y89784381D01*
X77626714Y89784381D02*
X77531476Y89832000D01*
X77531476Y89832000D02*
X77483857Y89927239D01*
X77483857Y89927239D02*
X77483857Y90308191D01*
X77483857Y90308191D02*
X77531476Y90403429D01*
X77531476Y90403429D02*
X77626714Y90451048D01*
X77626714Y90451048D02*
X77817190Y90451048D01*
X77817190Y90451048D02*
X77912428Y90403429D01*
X77912428Y90403429D02*
X77960047Y90308191D01*
X77960047Y90308191D02*
X77960047Y90212953D01*
X77960047Y90212953D02*
X77483857Y90117715D01*
X78388619Y90451048D02*
X78388619Y89784381D01*
X78388619Y90355810D02*
X78436238Y90403429D01*
X78436238Y90403429D02*
X78531476Y90451048D01*
X78531476Y90451048D02*
X78674333Y90451048D01*
X78674333Y90451048D02*
X78769571Y90403429D01*
X78769571Y90403429D02*
X78817190Y90308191D01*
X78817190Y90308191D02*
X78817190Y89784381D01*
X80055286Y90784381D02*
X80055286Y89974858D01*
X80055286Y89974858D02*
X80102905Y89879620D01*
X80102905Y89879620D02*
X80150524Y89832000D01*
X80150524Y89832000D02*
X80245762Y89784381D01*
X80245762Y89784381D02*
X80436238Y89784381D01*
X80436238Y89784381D02*
X80531476Y89832000D01*
X80531476Y89832000D02*
X80579095Y89879620D01*
X80579095Y89879620D02*
X80626714Y89974858D01*
X80626714Y89974858D02*
X80626714Y90784381D01*
X81150524Y89784381D02*
X81341000Y89784381D01*
X81341000Y89784381D02*
X81436238Y89832000D01*
X81436238Y89832000D02*
X81483857Y89879620D01*
X81483857Y89879620D02*
X81579095Y90022477D01*
X81579095Y90022477D02*
X81626714Y90212953D01*
X81626714Y90212953D02*
X81626714Y90593905D01*
X81626714Y90593905D02*
X81579095Y90689143D01*
X81579095Y90689143D02*
X81531476Y90736762D01*
X81531476Y90736762D02*
X81436238Y90784381D01*
X81436238Y90784381D02*
X81245762Y90784381D01*
X81245762Y90784381D02*
X81150524Y90736762D01*
X81150524Y90736762D02*
X81102905Y90689143D01*
X81102905Y90689143D02*
X81055286Y90593905D01*
X81055286Y90593905D02*
X81055286Y90355810D01*
X81055286Y90355810D02*
X81102905Y90260572D01*
X81102905Y90260572D02*
X81150524Y90212953D01*
X81150524Y90212953D02*
X81245762Y90165334D01*
X81245762Y90165334D02*
X81436238Y90165334D01*
X81436238Y90165334D02*
X81531476Y90212953D01*
X81531476Y90212953D02*
X81579095Y90260572D01*
X81579095Y90260572D02*
X81626714Y90355810D01*
X82817191Y89784381D02*
X82817191Y90451048D01*
X82817191Y90784381D02*
X82769572Y90736762D01*
X82769572Y90736762D02*
X82817191Y90689143D01*
X82817191Y90689143D02*
X82864810Y90736762D01*
X82864810Y90736762D02*
X82817191Y90784381D01*
X82817191Y90784381D02*
X82817191Y90689143D01*
X83245762Y89832000D02*
X83341000Y89784381D01*
X83341000Y89784381D02*
X83531476Y89784381D01*
X83531476Y89784381D02*
X83626714Y89832000D01*
X83626714Y89832000D02*
X83674333Y89927239D01*
X83674333Y89927239D02*
X83674333Y89974858D01*
X83674333Y89974858D02*
X83626714Y90070096D01*
X83626714Y90070096D02*
X83531476Y90117715D01*
X83531476Y90117715D02*
X83388619Y90117715D01*
X83388619Y90117715D02*
X83293381Y90165334D01*
X83293381Y90165334D02*
X83245762Y90260572D01*
X83245762Y90260572D02*
X83245762Y90308191D01*
X83245762Y90308191D02*
X83293381Y90403429D01*
X83293381Y90403429D02*
X83388619Y90451048D01*
X83388619Y90451048D02*
X83531476Y90451048D01*
X83531476Y90451048D02*
X83626714Y90403429D01*
X85436238Y89784381D02*
X85102905Y90260572D01*
X84864810Y89784381D02*
X84864810Y90784381D01*
X84864810Y90784381D02*
X85245762Y90784381D01*
X85245762Y90784381D02*
X85341000Y90736762D01*
X85341000Y90736762D02*
X85388619Y90689143D01*
X85388619Y90689143D02*
X85436238Y90593905D01*
X85436238Y90593905D02*
X85436238Y90451048D01*
X85436238Y90451048D02*
X85388619Y90355810D01*
X85388619Y90355810D02*
X85341000Y90308191D01*
X85341000Y90308191D02*
X85245762Y90260572D01*
X85245762Y90260572D02*
X84864810Y90260572D01*
X85817191Y90070096D02*
X86293381Y90070096D01*
X85721953Y89784381D02*
X86055286Y90784381D01*
X86055286Y90784381D02*
X86388619Y89784381D01*
X86721953Y89784381D02*
X86721953Y90784381D01*
X86721953Y90784381D02*
X87055286Y90070096D01*
X87055286Y90070096D02*
X87388619Y90784381D01*
X87388619Y90784381D02*
X87388619Y89784381D01*
X99423476Y56925381D02*
X100090142Y55925381D01*
X100090142Y56925381D02*
X99423476Y55925381D01*
X100994904Y55925381D02*
X100423476Y55925381D01*
X100709190Y55925381D02*
X100709190Y56925381D01*
X100709190Y56925381D02*
X100613952Y56782524D01*
X100613952Y56782524D02*
X100518714Y56687286D01*
X100518714Y56687286D02*
X100423476Y56639667D01*
X119886047Y3552762D02*
X119219380Y4505143D01*
X118743190Y3552762D02*
X118743190Y5552762D01*
X118743190Y5552762D02*
X119505095Y5552762D01*
X119505095Y5552762D02*
X119695571Y5457524D01*
X119695571Y5457524D02*
X119790809Y5362286D01*
X119790809Y5362286D02*
X119886047Y5171810D01*
X119886047Y5171810D02*
X119886047Y4886096D01*
X119886047Y4886096D02*
X119790809Y4695620D01*
X119790809Y4695620D02*
X119695571Y4600381D01*
X119695571Y4600381D02*
X119505095Y4505143D01*
X119505095Y4505143D02*
X118743190Y4505143D01*
X121790809Y3552762D02*
X120647952Y3552762D01*
X121219380Y3552762D02*
X121219380Y5552762D01*
X121219380Y5552762D02*
X121028904Y5267048D01*
X121028904Y5267048D02*
X120838428Y5076572D01*
X120838428Y5076572D02*
X120647952Y4981334D01*
X122743190Y3648000D02*
X122743190Y3552762D01*
X122743190Y3552762D02*
X122647952Y3362286D01*
X122647952Y3362286D02*
X122552714Y3267048D01*
X124743190Y3552762D02*
X124076523Y4505143D01*
X123600333Y3552762D02*
X123600333Y5552762D01*
X123600333Y5552762D02*
X124362238Y5552762D01*
X124362238Y5552762D02*
X124552714Y5457524D01*
X124552714Y5457524D02*
X124647952Y5362286D01*
X124647952Y5362286D02*
X124743190Y5171810D01*
X124743190Y5171810D02*
X124743190Y4886096D01*
X124743190Y4886096D02*
X124647952Y4695620D01*
X124647952Y4695620D02*
X124552714Y4600381D01*
X124552714Y4600381D02*
X124362238Y4505143D01*
X124362238Y4505143D02*
X123600333Y4505143D01*
X125505095Y5362286D02*
X125600333Y5457524D01*
X125600333Y5457524D02*
X125790809Y5552762D01*
X125790809Y5552762D02*
X126267000Y5552762D01*
X126267000Y5552762D02*
X126457476Y5457524D01*
X126457476Y5457524D02*
X126552714Y5362286D01*
X126552714Y5362286D02*
X126647952Y5171810D01*
X126647952Y5171810D02*
X126647952Y4981334D01*
X126647952Y4981334D02*
X126552714Y4695620D01*
X126552714Y4695620D02*
X125409857Y3552762D01*
X125409857Y3552762D02*
X126647952Y3552762D01*
X127600333Y3648000D02*
X127600333Y3552762D01*
X127600333Y3552762D02*
X127505095Y3362286D01*
X127505095Y3362286D02*
X127409857Y3267048D01*
X129600333Y3552762D02*
X128933666Y4505143D01*
X128457476Y3552762D02*
X128457476Y5552762D01*
X128457476Y5552762D02*
X129219381Y5552762D01*
X129219381Y5552762D02*
X129409857Y5457524D01*
X129409857Y5457524D02*
X129505095Y5362286D01*
X129505095Y5362286D02*
X129600333Y5171810D01*
X129600333Y5171810D02*
X129600333Y4886096D01*
X129600333Y4886096D02*
X129505095Y4695620D01*
X129505095Y4695620D02*
X129409857Y4600381D01*
X129409857Y4600381D02*
X129219381Y4505143D01*
X129219381Y4505143D02*
X128457476Y4505143D01*
X131314619Y4886096D02*
X131314619Y3552762D01*
X130838428Y5648000D02*
X130362238Y4219429D01*
X130362238Y4219429D02*
X131600333Y4219429D01*
X136267001Y4886096D02*
X136267001Y3552762D01*
X135790810Y5648000D02*
X135314620Y4219429D01*
X135314620Y4219429D02*
X136552715Y4219429D01*
X137314620Y3743239D02*
X137409858Y3648000D01*
X137409858Y3648000D02*
X137314620Y3552762D01*
X137314620Y3552762D02*
X137219382Y3648000D01*
X137219382Y3648000D02*
X137314620Y3743239D01*
X137314620Y3743239D02*
X137314620Y3552762D01*
X138076525Y5552762D02*
X139409858Y5552762D01*
X139409858Y5552762D02*
X138552715Y3552762D01*
X140171763Y3552762D02*
X140171763Y5552762D01*
X141314620Y3552762D02*
X140457477Y4695620D01*
X141314620Y5552762D02*
X140171763Y4409905D01*
X119886047Y312762D02*
X119219380Y1265143D01*
X118743190Y312762D02*
X118743190Y2312762D01*
X118743190Y2312762D02*
X119505095Y2312762D01*
X119505095Y2312762D02*
X119695571Y2217524D01*
X119695571Y2217524D02*
X119790809Y2122286D01*
X119790809Y2122286D02*
X119886047Y1931810D01*
X119886047Y1931810D02*
X119886047Y1646096D01*
X119886047Y1646096D02*
X119790809Y1455620D01*
X119790809Y1455620D02*
X119695571Y1360381D01*
X119695571Y1360381D02*
X119505095Y1265143D01*
X119505095Y1265143D02*
X118743190Y1265143D01*
X120552714Y2312762D02*
X121790809Y2312762D01*
X121790809Y2312762D02*
X121124142Y1550858D01*
X121124142Y1550858D02*
X121409857Y1550858D01*
X121409857Y1550858D02*
X121600333Y1455620D01*
X121600333Y1455620D02*
X121695571Y1360381D01*
X121695571Y1360381D02*
X121790809Y1169905D01*
X121790809Y1169905D02*
X121790809Y693715D01*
X121790809Y693715D02*
X121695571Y503239D01*
X121695571Y503239D02*
X121600333Y408000D01*
X121600333Y408000D02*
X121409857Y312762D01*
X121409857Y312762D02*
X120838428Y312762D01*
X120838428Y312762D02*
X120647952Y408000D01*
X120647952Y408000D02*
X120552714Y503239D01*
X135695575Y1646096D02*
X135695575Y312762D01*
X135219384Y2408000D02*
X134743194Y979429D01*
X134743194Y979429D02*
X135981289Y979429D01*
X136552718Y2312762D02*
X137886051Y2312762D01*
X137886051Y2312762D02*
X137028908Y312762D01*
X138647956Y312762D02*
X138647956Y2312762D01*
X139790813Y312762D02*
X138933670Y1455620D01*
X139790813Y2312762D02*
X138647956Y1169905D01*
X119886047Y-2927238D02*
X119219380Y-1974857D01*
X118743190Y-2927238D02*
X118743190Y-927238D01*
X118743190Y-927238D02*
X119505095Y-927238D01*
X119505095Y-927238D02*
X119695571Y-1022476D01*
X119695571Y-1022476D02*
X119790809Y-1117714D01*
X119790809Y-1117714D02*
X119886047Y-1308190D01*
X119886047Y-1308190D02*
X119886047Y-1593904D01*
X119886047Y-1593904D02*
X119790809Y-1784380D01*
X119790809Y-1784380D02*
X119695571Y-1879619D01*
X119695571Y-1879619D02*
X119505095Y-1974857D01*
X119505095Y-1974857D02*
X118743190Y-1974857D01*
X121695571Y-927238D02*
X120743190Y-927238D01*
X120743190Y-927238D02*
X120647952Y-1879619D01*
X120647952Y-1879619D02*
X120743190Y-1784380D01*
X120743190Y-1784380D02*
X120933666Y-1689142D01*
X120933666Y-1689142D02*
X121409857Y-1689142D01*
X121409857Y-1689142D02*
X121600333Y-1784380D01*
X121600333Y-1784380D02*
X121695571Y-1879619D01*
X121695571Y-1879619D02*
X121790809Y-2070095D01*
X121790809Y-2070095D02*
X121790809Y-2546285D01*
X121790809Y-2546285D02*
X121695571Y-2736761D01*
X121695571Y-2736761D02*
X121600333Y-2832000D01*
X121600333Y-2832000D02*
X121409857Y-2927238D01*
X121409857Y-2927238D02*
X120933666Y-2927238D01*
X120933666Y-2927238D02*
X120743190Y-2832000D01*
X120743190Y-2832000D02*
X120647952Y-2736761D01*
X134743194Y-1117714D02*
X134838432Y-1022476D01*
X134838432Y-1022476D02*
X135028908Y-927238D01*
X135028908Y-927238D02*
X135505099Y-927238D01*
X135505099Y-927238D02*
X135695575Y-1022476D01*
X135695575Y-1022476D02*
X135790813Y-1117714D01*
X135790813Y-1117714D02*
X135886051Y-1308190D01*
X135886051Y-1308190D02*
X135886051Y-1498666D01*
X135886051Y-1498666D02*
X135790813Y-1784380D01*
X135790813Y-1784380D02*
X134647956Y-2927238D01*
X134647956Y-2927238D02*
X135886051Y-2927238D01*
X136743194Y-2736761D02*
X136838432Y-2832000D01*
X136838432Y-2832000D02*
X136743194Y-2927238D01*
X136743194Y-2927238D02*
X136647956Y-2832000D01*
X136647956Y-2832000D02*
X136743194Y-2736761D01*
X136743194Y-2736761D02*
X136743194Y-2927238D01*
X137600337Y-1117714D02*
X137695575Y-1022476D01*
X137695575Y-1022476D02*
X137886051Y-927238D01*
X137886051Y-927238D02*
X138362242Y-927238D01*
X138362242Y-927238D02*
X138552718Y-1022476D01*
X138552718Y-1022476D02*
X138647956Y-1117714D01*
X138647956Y-1117714D02*
X138743194Y-1308190D01*
X138743194Y-1308190D02*
X138743194Y-1498666D01*
X138743194Y-1498666D02*
X138647956Y-1784380D01*
X138647956Y-1784380D02*
X137505099Y-2927238D01*
X137505099Y-2927238D02*
X138743194Y-2927238D01*
X139600337Y-2927238D02*
X139600337Y-927238D01*
X140743194Y-2927238D02*
X139886051Y-1784380D01*
X140743194Y-927238D02*
X139600337Y-2070095D01*
X119886047Y-5976761D02*
X119790809Y-6072000D01*
X119790809Y-6072000D02*
X119505095Y-6167238D01*
X119505095Y-6167238D02*
X119314619Y-6167238D01*
X119314619Y-6167238D02*
X119028904Y-6072000D01*
X119028904Y-6072000D02*
X118838428Y-5881523D01*
X118838428Y-5881523D02*
X118743190Y-5691047D01*
X118743190Y-5691047D02*
X118647952Y-5310095D01*
X118647952Y-5310095D02*
X118647952Y-5024380D01*
X118647952Y-5024380D02*
X118743190Y-4643428D01*
X118743190Y-4643428D02*
X118838428Y-4452952D01*
X118838428Y-4452952D02*
X119028904Y-4262476D01*
X119028904Y-4262476D02*
X119314619Y-4167238D01*
X119314619Y-4167238D02*
X119505095Y-4167238D01*
X119505095Y-4167238D02*
X119790809Y-4262476D01*
X119790809Y-4262476D02*
X119886047Y-4357714D01*
X121790809Y-6167238D02*
X120647952Y-6167238D01*
X121219380Y-6167238D02*
X121219380Y-4167238D01*
X121219380Y-4167238D02*
X121028904Y-4452952D01*
X121028904Y-4452952D02*
X120838428Y-4643428D01*
X120838428Y-4643428D02*
X120647952Y-4738666D01*
X135886051Y-6167238D02*
X134743194Y-6167238D01*
X135314622Y-6167238D02*
X135314622Y-4167238D01*
X135314622Y-4167238D02*
X135124146Y-4452952D01*
X135124146Y-4452952D02*
X134933670Y-4643428D01*
X134933670Y-4643428D02*
X134743194Y-4738666D01*
X137124146Y-4167238D02*
X137314623Y-4167238D01*
X137314623Y-4167238D02*
X137505099Y-4262476D01*
X137505099Y-4262476D02*
X137600337Y-4357714D01*
X137600337Y-4357714D02*
X137695575Y-4548190D01*
X137695575Y-4548190D02*
X137790813Y-4929142D01*
X137790813Y-4929142D02*
X137790813Y-5405333D01*
X137790813Y-5405333D02*
X137695575Y-5786285D01*
X137695575Y-5786285D02*
X137600337Y-5976761D01*
X137600337Y-5976761D02*
X137505099Y-6072000D01*
X137505099Y-6072000D02*
X137314623Y-6167238D01*
X137314623Y-6167238D02*
X137124146Y-6167238D01*
X137124146Y-6167238D02*
X136933670Y-6072000D01*
X136933670Y-6072000D02*
X136838432Y-5976761D01*
X136838432Y-5976761D02*
X136743194Y-5786285D01*
X136743194Y-5786285D02*
X136647956Y-5405333D01*
X136647956Y-5405333D02*
X136647956Y-4929142D01*
X136647956Y-4929142D02*
X136743194Y-4548190D01*
X136743194Y-4548190D02*
X136838432Y-4357714D01*
X136838432Y-4357714D02*
X136933670Y-4262476D01*
X136933670Y-4262476D02*
X137124146Y-4167238D01*
X138647956Y-4833904D02*
X138647956Y-6833904D01*
X139600337Y-5881523D02*
X139695575Y-6072000D01*
X139695575Y-6072000D02*
X139886051Y-6167238D01*
X138647956Y-5881523D02*
X138743194Y-6072000D01*
X138743194Y-6072000D02*
X138933670Y-6167238D01*
X138933670Y-6167238D02*
X139314623Y-6167238D01*
X139314623Y-6167238D02*
X139505099Y-6072000D01*
X139505099Y-6072000D02*
X139600337Y-5881523D01*
X139600337Y-5881523D02*
X139600337Y-4833904D01*
X119886047Y-9216761D02*
X119790809Y-9312000D01*
X119790809Y-9312000D02*
X119505095Y-9407238D01*
X119505095Y-9407238D02*
X119314619Y-9407238D01*
X119314619Y-9407238D02*
X119028904Y-9312000D01*
X119028904Y-9312000D02*
X118838428Y-9121523D01*
X118838428Y-9121523D02*
X118743190Y-8931047D01*
X118743190Y-8931047D02*
X118647952Y-8550095D01*
X118647952Y-8550095D02*
X118647952Y-8264380D01*
X118647952Y-8264380D02*
X118743190Y-7883428D01*
X118743190Y-7883428D02*
X118838428Y-7692952D01*
X118838428Y-7692952D02*
X119028904Y-7502476D01*
X119028904Y-7502476D02*
X119314619Y-7407238D01*
X119314619Y-7407238D02*
X119505095Y-7407238D01*
X119505095Y-7407238D02*
X119790809Y-7502476D01*
X119790809Y-7502476D02*
X119886047Y-7597714D01*
X120647952Y-7597714D02*
X120743190Y-7502476D01*
X120743190Y-7502476D02*
X120933666Y-7407238D01*
X120933666Y-7407238D02*
X121409857Y-7407238D01*
X121409857Y-7407238D02*
X121600333Y-7502476D01*
X121600333Y-7502476D02*
X121695571Y-7597714D01*
X121695571Y-7597714D02*
X121790809Y-7788190D01*
X121790809Y-7788190D02*
X121790809Y-7978666D01*
X121790809Y-7978666D02*
X121695571Y-8264380D01*
X121695571Y-8264380D02*
X120552714Y-9407238D01*
X120552714Y-9407238D02*
X121790809Y-9407238D01*
X122362238Y-8645333D02*
X122457476Y-8550095D01*
X122457476Y-8550095D02*
X122647952Y-8454857D01*
X122647952Y-8454857D02*
X123028904Y-8645333D01*
X123028904Y-8645333D02*
X123219381Y-8550095D01*
X123219381Y-8550095D02*
X123314619Y-8454857D01*
X125219380Y-9216761D02*
X125124142Y-9312000D01*
X125124142Y-9312000D02*
X124838428Y-9407238D01*
X124838428Y-9407238D02*
X124647952Y-9407238D01*
X124647952Y-9407238D02*
X124362237Y-9312000D01*
X124362237Y-9312000D02*
X124171761Y-9121523D01*
X124171761Y-9121523D02*
X124076523Y-8931047D01*
X124076523Y-8931047D02*
X123981285Y-8550095D01*
X123981285Y-8550095D02*
X123981285Y-8264380D01*
X123981285Y-8264380D02*
X124076523Y-7883428D01*
X124076523Y-7883428D02*
X124171761Y-7692952D01*
X124171761Y-7692952D02*
X124362237Y-7502476D01*
X124362237Y-7502476D02*
X124647952Y-7407238D01*
X124647952Y-7407238D02*
X124838428Y-7407238D01*
X124838428Y-7407238D02*
X125124142Y-7502476D01*
X125124142Y-7502476D02*
X125219380Y-7597714D01*
X125886047Y-7407238D02*
X127219380Y-7407238D01*
X127219380Y-7407238D02*
X126362237Y-9407238D01*
X135981287Y-7407238D02*
X136171764Y-7407238D01*
X136171764Y-7407238D02*
X136362240Y-7502476D01*
X136362240Y-7502476D02*
X136457478Y-7597714D01*
X136457478Y-7597714D02*
X136552716Y-7788190D01*
X136552716Y-7788190D02*
X136647954Y-8169142D01*
X136647954Y-8169142D02*
X136647954Y-8645333D01*
X136647954Y-8645333D02*
X136552716Y-9026285D01*
X136552716Y-9026285D02*
X136457478Y-9216761D01*
X136457478Y-9216761D02*
X136362240Y-9312000D01*
X136362240Y-9312000D02*
X136171764Y-9407238D01*
X136171764Y-9407238D02*
X135981287Y-9407238D01*
X135981287Y-9407238D02*
X135790811Y-9312000D01*
X135790811Y-9312000D02*
X135695573Y-9216761D01*
X135695573Y-9216761D02*
X135600335Y-9026285D01*
X135600335Y-9026285D02*
X135505097Y-8645333D01*
X135505097Y-8645333D02*
X135505097Y-8169142D01*
X135505097Y-8169142D02*
X135600335Y-7788190D01*
X135600335Y-7788190D02*
X135695573Y-7597714D01*
X135695573Y-7597714D02*
X135790811Y-7502476D01*
X135790811Y-7502476D02*
X135981287Y-7407238D01*
X137505097Y-9216761D02*
X137600335Y-9312000D01*
X137600335Y-9312000D02*
X137505097Y-9407238D01*
X137505097Y-9407238D02*
X137409859Y-9312000D01*
X137409859Y-9312000D02*
X137505097Y-9216761D01*
X137505097Y-9216761D02*
X137505097Y-9407238D01*
X139505097Y-9407238D02*
X138362240Y-9407238D01*
X138933668Y-9407238D02*
X138933668Y-7407238D01*
X138933668Y-7407238D02*
X138743192Y-7692952D01*
X138743192Y-7692952D02*
X138552716Y-7883428D01*
X138552716Y-7883428D02*
X138362240Y-7978666D01*
X140362240Y-8073904D02*
X140362240Y-10073904D01*
X141314621Y-9121523D02*
X141409859Y-9312000D01*
X141409859Y-9312000D02*
X141600335Y-9407238D01*
X140362240Y-9121523D02*
X140457478Y-9312000D01*
X140457478Y-9312000D02*
X140647954Y-9407238D01*
X140647954Y-9407238D02*
X141028907Y-9407238D01*
X141028907Y-9407238D02*
X141219383Y-9312000D01*
X141219383Y-9312000D02*
X141314621Y-9121523D01*
X141314621Y-9121523D02*
X141314621Y-8073904D01*
X106582904Y38412762D02*
X106487666Y38460381D01*
X106487666Y38460381D02*
X106344809Y38460381D01*
X106344809Y38460381D02*
X106201952Y38412762D01*
X106201952Y38412762D02*
X106106714Y38317524D01*
X106106714Y38317524D02*
X106059095Y38222286D01*
X106059095Y38222286D02*
X106011476Y38031810D01*
X106011476Y38031810D02*
X106011476Y37888953D01*
X106011476Y37888953D02*
X106059095Y37698477D01*
X106059095Y37698477D02*
X106106714Y37603239D01*
X106106714Y37603239D02*
X106201952Y37508000D01*
X106201952Y37508000D02*
X106344809Y37460381D01*
X106344809Y37460381D02*
X106440047Y37460381D01*
X106440047Y37460381D02*
X106582904Y37508000D01*
X106582904Y37508000D02*
X106630523Y37555620D01*
X106630523Y37555620D02*
X106630523Y37888953D01*
X106630523Y37888953D02*
X106440047Y37888953D01*
X107059095Y37460381D02*
X107059095Y38460381D01*
X107059095Y38460381D02*
X107630523Y37460381D01*
X107630523Y37460381D02*
X107630523Y38460381D01*
X108106714Y37460381D02*
X108106714Y38460381D01*
X108106714Y38460381D02*
X108344809Y38460381D01*
X108344809Y38460381D02*
X108487666Y38412762D01*
X108487666Y38412762D02*
X108582904Y38317524D01*
X108582904Y38317524D02*
X108630523Y38222286D01*
X108630523Y38222286D02*
X108678142Y38031810D01*
X108678142Y38031810D02*
X108678142Y37888953D01*
X108678142Y37888953D02*
X108630523Y37698477D01*
X108630523Y37698477D02*
X108582904Y37603239D01*
X108582904Y37603239D02*
X108487666Y37508000D01*
X108487666Y37508000D02*
X108344809Y37460381D01*
X108344809Y37460381D02*
X108106714Y37460381D01*
X87482142Y75254572D02*
X87367857Y75311715D01*
X87367857Y75311715D02*
X87310714Y75368858D01*
X87310714Y75368858D02*
X87253571Y75483143D01*
X87253571Y75483143D02*
X87253571Y75540286D01*
X87253571Y75540286D02*
X87310714Y75654572D01*
X87310714Y75654572D02*
X87367857Y75711715D01*
X87367857Y75711715D02*
X87482142Y75768858D01*
X87482142Y75768858D02*
X87710714Y75768858D01*
X87710714Y75768858D02*
X87825000Y75711715D01*
X87825000Y75711715D02*
X87882142Y75654572D01*
X87882142Y75654572D02*
X87939285Y75540286D01*
X87939285Y75540286D02*
X87939285Y75483143D01*
X87939285Y75483143D02*
X87882142Y75368858D01*
X87882142Y75368858D02*
X87825000Y75311715D01*
X87825000Y75311715D02*
X87710714Y75254572D01*
X87710714Y75254572D02*
X87482142Y75254572D01*
X87482142Y75254572D02*
X87367857Y75197429D01*
X87367857Y75197429D02*
X87310714Y75140286D01*
X87310714Y75140286D02*
X87253571Y75026000D01*
X87253571Y75026000D02*
X87253571Y74797429D01*
X87253571Y74797429D02*
X87310714Y74683143D01*
X87310714Y74683143D02*
X87367857Y74626000D01*
X87367857Y74626000D02*
X87482142Y74568858D01*
X87482142Y74568858D02*
X87710714Y74568858D01*
X87710714Y74568858D02*
X87825000Y74626000D01*
X87825000Y74626000D02*
X87882142Y74683143D01*
X87882142Y74683143D02*
X87939285Y74797429D01*
X87939285Y74797429D02*
X87939285Y75026000D01*
X87939285Y75026000D02*
X87882142Y75140286D01*
X87882142Y75140286D02*
X87825000Y75197429D01*
X87825000Y75197429D02*
X87710714Y75254572D01*
X88453571Y74568858D02*
X88453571Y75768858D01*
X88453571Y75768858D02*
X88853571Y74911715D01*
X88853571Y74911715D02*
X89253571Y75768858D01*
X89253571Y75768858D02*
X89253571Y74568858D01*
X89710714Y75768858D02*
X90510714Y75768858D01*
X90510714Y75768858D02*
X89710714Y74568858D01*
X89710714Y74568858D02*
X90510714Y74568858D01*
%TO.C,R5*%
X68570333Y85785381D02*
X68237000Y86261572D01*
X67998905Y85785381D02*
X67998905Y86785381D01*
X67998905Y86785381D02*
X68379857Y86785381D01*
X68379857Y86785381D02*
X68475095Y86737762D01*
X68475095Y86737762D02*
X68522714Y86690143D01*
X68522714Y86690143D02*
X68570333Y86594905D01*
X68570333Y86594905D02*
X68570333Y86452048D01*
X68570333Y86452048D02*
X68522714Y86356810D01*
X68522714Y86356810D02*
X68475095Y86309191D01*
X68475095Y86309191D02*
X68379857Y86261572D01*
X68379857Y86261572D02*
X67998905Y86261572D01*
X69475095Y86785381D02*
X68998905Y86785381D01*
X68998905Y86785381D02*
X68951286Y86309191D01*
X68951286Y86309191D02*
X68998905Y86356810D01*
X68998905Y86356810D02*
X69094143Y86404429D01*
X69094143Y86404429D02*
X69332238Y86404429D01*
X69332238Y86404429D02*
X69427476Y86356810D01*
X69427476Y86356810D02*
X69475095Y86309191D01*
X69475095Y86309191D02*
X69522714Y86213953D01*
X69522714Y86213953D02*
X69522714Y85975858D01*
X69522714Y85975858D02*
X69475095Y85880620D01*
X69475095Y85880620D02*
X69427476Y85833000D01*
X69427476Y85833000D02*
X69332238Y85785381D01*
X69332238Y85785381D02*
X69094143Y85785381D01*
X69094143Y85785381D02*
X68998905Y85833000D01*
X68998905Y85833000D02*
X68951286Y85880620D01*
%TO.C,D1*%
X67998905Y82253381D02*
X67998905Y83253381D01*
X67998905Y83253381D02*
X68237000Y83253381D01*
X68237000Y83253381D02*
X68379857Y83205762D01*
X68379857Y83205762D02*
X68475095Y83110524D01*
X68475095Y83110524D02*
X68522714Y83015286D01*
X68522714Y83015286D02*
X68570333Y82824810D01*
X68570333Y82824810D02*
X68570333Y82681953D01*
X68570333Y82681953D02*
X68522714Y82491477D01*
X68522714Y82491477D02*
X68475095Y82396239D01*
X68475095Y82396239D02*
X68379857Y82301000D01*
X68379857Y82301000D02*
X68237000Y82253381D01*
X68237000Y82253381D02*
X67998905Y82253381D01*
X69522714Y82253381D02*
X68951286Y82253381D01*
X69237000Y82253381D02*
X69237000Y83253381D01*
X69237000Y83253381D02*
X69141762Y83110524D01*
X69141762Y83110524D02*
X69046524Y83015286D01*
X69046524Y83015286D02*
X68951286Y82967667D01*
%TO.C,R2*%
X10876619Y70191334D02*
X10400428Y69858001D01*
X10876619Y69619906D02*
X9876619Y69619906D01*
X9876619Y69619906D02*
X9876619Y70000858D01*
X9876619Y70000858D02*
X9924238Y70096096D01*
X9924238Y70096096D02*
X9971857Y70143715D01*
X9971857Y70143715D02*
X10067095Y70191334D01*
X10067095Y70191334D02*
X10209952Y70191334D01*
X10209952Y70191334D02*
X10305190Y70143715D01*
X10305190Y70143715D02*
X10352809Y70096096D01*
X10352809Y70096096D02*
X10400428Y70000858D01*
X10400428Y70000858D02*
X10400428Y69619906D01*
X9971857Y70572287D02*
X9924238Y70619906D01*
X9924238Y70619906D02*
X9876619Y70715144D01*
X9876619Y70715144D02*
X9876619Y70953239D01*
X9876619Y70953239D02*
X9924238Y71048477D01*
X9924238Y71048477D02*
X9971857Y71096096D01*
X9971857Y71096096D02*
X10067095Y71143715D01*
X10067095Y71143715D02*
X10162333Y71143715D01*
X10162333Y71143715D02*
X10305190Y71096096D01*
X10305190Y71096096D02*
X10876619Y70524668D01*
X10876619Y70524668D02*
X10876619Y71143715D01*
%TO.C,J1*%
X88684119Y14152667D02*
X89398404Y14152667D01*
X89398404Y14152667D02*
X89541261Y14105048D01*
X89541261Y14105048D02*
X89636500Y14009810D01*
X89636500Y14009810D02*
X89684119Y13866953D01*
X89684119Y13866953D02*
X89684119Y13771715D01*
X89684119Y15152667D02*
X89684119Y14581239D01*
X89684119Y14866953D02*
X88684119Y14866953D01*
X88684119Y14866953D02*
X88826976Y14771715D01*
X88826976Y14771715D02*
X88922214Y14676477D01*
X88922214Y14676477D02*
X88969833Y14581239D01*
%TO.C,R3*%
X13041333Y16047381D02*
X12708000Y16523572D01*
X12469905Y16047381D02*
X12469905Y17047381D01*
X12469905Y17047381D02*
X12850857Y17047381D01*
X12850857Y17047381D02*
X12946095Y16999762D01*
X12946095Y16999762D02*
X12993714Y16952143D01*
X12993714Y16952143D02*
X13041333Y16856905D01*
X13041333Y16856905D02*
X13041333Y16714048D01*
X13041333Y16714048D02*
X12993714Y16618810D01*
X12993714Y16618810D02*
X12946095Y16571191D01*
X12946095Y16571191D02*
X12850857Y16523572D01*
X12850857Y16523572D02*
X12469905Y16523572D01*
X13374667Y17047381D02*
X13993714Y17047381D01*
X13993714Y17047381D02*
X13660381Y16666429D01*
X13660381Y16666429D02*
X13803238Y16666429D01*
X13803238Y16666429D02*
X13898476Y16618810D01*
X13898476Y16618810D02*
X13946095Y16571191D01*
X13946095Y16571191D02*
X13993714Y16475953D01*
X13993714Y16475953D02*
X13993714Y16237858D01*
X13993714Y16237858D02*
X13946095Y16142620D01*
X13946095Y16142620D02*
X13898476Y16095000D01*
X13898476Y16095000D02*
X13803238Y16047381D01*
X13803238Y16047381D02*
X13517524Y16047381D01*
X13517524Y16047381D02*
X13422286Y16095000D01*
X13422286Y16095000D02*
X13374667Y16142620D01*
%TO.C,U2*%
X32736619Y78232096D02*
X33546142Y78232096D01*
X33546142Y78232096D02*
X33641380Y78279715D01*
X33641380Y78279715D02*
X33689000Y78327334D01*
X33689000Y78327334D02*
X33736619Y78422572D01*
X33736619Y78422572D02*
X33736619Y78613048D01*
X33736619Y78613048D02*
X33689000Y78708286D01*
X33689000Y78708286D02*
X33641380Y78755905D01*
X33641380Y78755905D02*
X33546142Y78803524D01*
X33546142Y78803524D02*
X32736619Y78803524D01*
X32831857Y79232096D02*
X32784238Y79279715D01*
X32784238Y79279715D02*
X32736619Y79374953D01*
X32736619Y79374953D02*
X32736619Y79613048D01*
X32736619Y79613048D02*
X32784238Y79708286D01*
X32784238Y79708286D02*
X32831857Y79755905D01*
X32831857Y79755905D02*
X32927095Y79803524D01*
X32927095Y79803524D02*
X33022333Y79803524D01*
X33022333Y79803524D02*
X33165190Y79755905D01*
X33165190Y79755905D02*
X33736619Y79184477D01*
X33736619Y79184477D02*
X33736619Y79803524D01*
%TO.C,U5*%
X52832095Y90243381D02*
X52832095Y89433858D01*
X52832095Y89433858D02*
X52879714Y89338620D01*
X52879714Y89338620D02*
X52927333Y89291000D01*
X52927333Y89291000D02*
X53022571Y89243381D01*
X53022571Y89243381D02*
X53213047Y89243381D01*
X53213047Y89243381D02*
X53308285Y89291000D01*
X53308285Y89291000D02*
X53355904Y89338620D01*
X53355904Y89338620D02*
X53403523Y89433858D01*
X53403523Y89433858D02*
X53403523Y90243381D01*
X54355904Y90243381D02*
X53879714Y90243381D01*
X53879714Y90243381D02*
X53832095Y89767191D01*
X53832095Y89767191D02*
X53879714Y89814810D01*
X53879714Y89814810D02*
X53974952Y89862429D01*
X53974952Y89862429D02*
X54213047Y89862429D01*
X54213047Y89862429D02*
X54308285Y89814810D01*
X54308285Y89814810D02*
X54355904Y89767191D01*
X54355904Y89767191D02*
X54403523Y89671953D01*
X54403523Y89671953D02*
X54403523Y89433858D01*
X54403523Y89433858D02*
X54355904Y89338620D01*
X54355904Y89338620D02*
X54308285Y89291000D01*
X54308285Y89291000D02*
X54213047Y89243381D01*
X54213047Y89243381D02*
X53974952Y89243381D01*
X53974952Y89243381D02*
X53879714Y89291000D01*
X53879714Y89291000D02*
X53832095Y89338620D01*
%TO.C,U4*%
X22606095Y75003381D02*
X22606095Y74193858D01*
X22606095Y74193858D02*
X22653714Y74098620D01*
X22653714Y74098620D02*
X22701333Y74051000D01*
X22701333Y74051000D02*
X22796571Y74003381D01*
X22796571Y74003381D02*
X22987047Y74003381D01*
X22987047Y74003381D02*
X23082285Y74051000D01*
X23082285Y74051000D02*
X23129904Y74098620D01*
X23129904Y74098620D02*
X23177523Y74193858D01*
X23177523Y74193858D02*
X23177523Y75003381D01*
X24082285Y74670048D02*
X24082285Y74003381D01*
X23844190Y75051000D02*
X23606095Y74336715D01*
X23606095Y74336715D02*
X24225142Y74336715D01*
%TO.C,U7*%
X49433095Y66831381D02*
X49433095Y66021858D01*
X49433095Y66021858D02*
X49480714Y65926620D01*
X49480714Y65926620D02*
X49528333Y65879000D01*
X49528333Y65879000D02*
X49623571Y65831381D01*
X49623571Y65831381D02*
X49814047Y65831381D01*
X49814047Y65831381D02*
X49909285Y65879000D01*
X49909285Y65879000D02*
X49956904Y65926620D01*
X49956904Y65926620D02*
X50004523Y66021858D01*
X50004523Y66021858D02*
X50004523Y66831381D01*
X50385476Y66831381D02*
X51052142Y66831381D01*
X51052142Y66831381D02*
X50623571Y65831381D01*
%TO.C,U8*%
X72039095Y66831381D02*
X72039095Y66021858D01*
X72039095Y66021858D02*
X72086714Y65926620D01*
X72086714Y65926620D02*
X72134333Y65879000D01*
X72134333Y65879000D02*
X72229571Y65831381D01*
X72229571Y65831381D02*
X72420047Y65831381D01*
X72420047Y65831381D02*
X72515285Y65879000D01*
X72515285Y65879000D02*
X72562904Y65926620D01*
X72562904Y65926620D02*
X72610523Y66021858D01*
X72610523Y66021858D02*
X72610523Y66831381D01*
X73229571Y66402810D02*
X73134333Y66450429D01*
X73134333Y66450429D02*
X73086714Y66498048D01*
X73086714Y66498048D02*
X73039095Y66593286D01*
X73039095Y66593286D02*
X73039095Y66640905D01*
X73039095Y66640905D02*
X73086714Y66736143D01*
X73086714Y66736143D02*
X73134333Y66783762D01*
X73134333Y66783762D02*
X73229571Y66831381D01*
X73229571Y66831381D02*
X73420047Y66831381D01*
X73420047Y66831381D02*
X73515285Y66783762D01*
X73515285Y66783762D02*
X73562904Y66736143D01*
X73562904Y66736143D02*
X73610523Y66640905D01*
X73610523Y66640905D02*
X73610523Y66593286D01*
X73610523Y66593286D02*
X73562904Y66498048D01*
X73562904Y66498048D02*
X73515285Y66450429D01*
X73515285Y66450429D02*
X73420047Y66402810D01*
X73420047Y66402810D02*
X73229571Y66402810D01*
X73229571Y66402810D02*
X73134333Y66355191D01*
X73134333Y66355191D02*
X73086714Y66307572D01*
X73086714Y66307572D02*
X73039095Y66212334D01*
X73039095Y66212334D02*
X73039095Y66021858D01*
X73039095Y66021858D02*
X73086714Y65926620D01*
X73086714Y65926620D02*
X73134333Y65879000D01*
X73134333Y65879000D02*
X73229571Y65831381D01*
X73229571Y65831381D02*
X73420047Y65831381D01*
X73420047Y65831381D02*
X73515285Y65879000D01*
X73515285Y65879000D02*
X73562904Y65926620D01*
X73562904Y65926620D02*
X73610523Y66021858D01*
X73610523Y66021858D02*
X73610523Y66212334D01*
X73610523Y66212334D02*
X73562904Y66307572D01*
X73562904Y66307572D02*
X73515285Y66355191D01*
X73515285Y66355191D02*
X73420047Y66402810D01*
%TO.C,U6*%
X92359095Y61243381D02*
X92359095Y60433858D01*
X92359095Y60433858D02*
X92406714Y60338620D01*
X92406714Y60338620D02*
X92454333Y60291000D01*
X92454333Y60291000D02*
X92549571Y60243381D01*
X92549571Y60243381D02*
X92740047Y60243381D01*
X92740047Y60243381D02*
X92835285Y60291000D01*
X92835285Y60291000D02*
X92882904Y60338620D01*
X92882904Y60338620D02*
X92930523Y60433858D01*
X92930523Y60433858D02*
X92930523Y61243381D01*
X93835285Y61243381D02*
X93644809Y61243381D01*
X93644809Y61243381D02*
X93549571Y61195762D01*
X93549571Y61195762D02*
X93501952Y61148143D01*
X93501952Y61148143D02*
X93406714Y61005286D01*
X93406714Y61005286D02*
X93359095Y60814810D01*
X93359095Y60814810D02*
X93359095Y60433858D01*
X93359095Y60433858D02*
X93406714Y60338620D01*
X93406714Y60338620D02*
X93454333Y60291000D01*
X93454333Y60291000D02*
X93549571Y60243381D01*
X93549571Y60243381D02*
X93740047Y60243381D01*
X93740047Y60243381D02*
X93835285Y60291000D01*
X93835285Y60291000D02*
X93882904Y60338620D01*
X93882904Y60338620D02*
X93930523Y60433858D01*
X93930523Y60433858D02*
X93930523Y60671953D01*
X93930523Y60671953D02*
X93882904Y60767191D01*
X93882904Y60767191D02*
X93835285Y60814810D01*
X93835285Y60814810D02*
X93740047Y60862429D01*
X93740047Y60862429D02*
X93549571Y60862429D01*
X93549571Y60862429D02*
X93454333Y60814810D01*
X93454333Y60814810D02*
X93406714Y60767191D01*
X93406714Y60767191D02*
X93359095Y60671953D01*
%TO.C,R1*%
X10734619Y51649334D02*
X10258428Y51316001D01*
X10734619Y51077906D02*
X9734619Y51077906D01*
X9734619Y51077906D02*
X9734619Y51458858D01*
X9734619Y51458858D02*
X9782238Y51554096D01*
X9782238Y51554096D02*
X9829857Y51601715D01*
X9829857Y51601715D02*
X9925095Y51649334D01*
X9925095Y51649334D02*
X10067952Y51649334D01*
X10067952Y51649334D02*
X10163190Y51601715D01*
X10163190Y51601715D02*
X10210809Y51554096D01*
X10210809Y51554096D02*
X10258428Y51458858D01*
X10258428Y51458858D02*
X10258428Y51077906D01*
X10734619Y52601715D02*
X10734619Y52030287D01*
X10734619Y52316001D02*
X9734619Y52316001D01*
X9734619Y52316001D02*
X9877476Y52220763D01*
X9877476Y52220763D02*
X9972714Y52125525D01*
X9972714Y52125525D02*
X10020333Y52030287D01*
%TO.C,C2*%
X10527380Y82891334D02*
X10575000Y82843715D01*
X10575000Y82843715D02*
X10622619Y82700858D01*
X10622619Y82700858D02*
X10622619Y82605620D01*
X10622619Y82605620D02*
X10575000Y82462763D01*
X10575000Y82462763D02*
X10479761Y82367525D01*
X10479761Y82367525D02*
X10384523Y82319906D01*
X10384523Y82319906D02*
X10194047Y82272287D01*
X10194047Y82272287D02*
X10051190Y82272287D01*
X10051190Y82272287D02*
X9860714Y82319906D01*
X9860714Y82319906D02*
X9765476Y82367525D01*
X9765476Y82367525D02*
X9670238Y82462763D01*
X9670238Y82462763D02*
X9622619Y82605620D01*
X9622619Y82605620D02*
X9622619Y82700858D01*
X9622619Y82700858D02*
X9670238Y82843715D01*
X9670238Y82843715D02*
X9717857Y82891334D01*
X9717857Y83272287D02*
X9670238Y83319906D01*
X9670238Y83319906D02*
X9622619Y83415144D01*
X9622619Y83415144D02*
X9622619Y83653239D01*
X9622619Y83653239D02*
X9670238Y83748477D01*
X9670238Y83748477D02*
X9717857Y83796096D01*
X9717857Y83796096D02*
X9813095Y83843715D01*
X9813095Y83843715D02*
X9908333Y83843715D01*
X9908333Y83843715D02*
X10051190Y83796096D01*
X10051190Y83796096D02*
X10622619Y83224668D01*
X10622619Y83224668D02*
X10622619Y83843715D01*
%TO.C,C3*%
X82891333Y60338620D02*
X82843714Y60291000D01*
X82843714Y60291000D02*
X82700857Y60243381D01*
X82700857Y60243381D02*
X82605619Y60243381D01*
X82605619Y60243381D02*
X82462762Y60291000D01*
X82462762Y60291000D02*
X82367524Y60386239D01*
X82367524Y60386239D02*
X82319905Y60481477D01*
X82319905Y60481477D02*
X82272286Y60671953D01*
X82272286Y60671953D02*
X82272286Y60814810D01*
X82272286Y60814810D02*
X82319905Y61005286D01*
X82319905Y61005286D02*
X82367524Y61100524D01*
X82367524Y61100524D02*
X82462762Y61195762D01*
X82462762Y61195762D02*
X82605619Y61243381D01*
X82605619Y61243381D02*
X82700857Y61243381D01*
X82700857Y61243381D02*
X82843714Y61195762D01*
X82843714Y61195762D02*
X82891333Y61148143D01*
X83224667Y61243381D02*
X83843714Y61243381D01*
X83843714Y61243381D02*
X83510381Y60862429D01*
X83510381Y60862429D02*
X83653238Y60862429D01*
X83653238Y60862429D02*
X83748476Y60814810D01*
X83748476Y60814810D02*
X83796095Y60767191D01*
X83796095Y60767191D02*
X83843714Y60671953D01*
X83843714Y60671953D02*
X83843714Y60433858D01*
X83843714Y60433858D02*
X83796095Y60338620D01*
X83796095Y60338620D02*
X83748476Y60291000D01*
X83748476Y60291000D02*
X83653238Y60243381D01*
X83653238Y60243381D02*
X83367524Y60243381D01*
X83367524Y60243381D02*
X83272286Y60291000D01*
X83272286Y60291000D02*
X83224667Y60338620D01*
%TO.C,C4*%
X40473333Y65672620D02*
X40425714Y65625000D01*
X40425714Y65625000D02*
X40282857Y65577381D01*
X40282857Y65577381D02*
X40187619Y65577381D01*
X40187619Y65577381D02*
X40044762Y65625000D01*
X40044762Y65625000D02*
X39949524Y65720239D01*
X39949524Y65720239D02*
X39901905Y65815477D01*
X39901905Y65815477D02*
X39854286Y66005953D01*
X39854286Y66005953D02*
X39854286Y66148810D01*
X39854286Y66148810D02*
X39901905Y66339286D01*
X39901905Y66339286D02*
X39949524Y66434524D01*
X39949524Y66434524D02*
X40044762Y66529762D01*
X40044762Y66529762D02*
X40187619Y66577381D01*
X40187619Y66577381D02*
X40282857Y66577381D01*
X40282857Y66577381D02*
X40425714Y66529762D01*
X40425714Y66529762D02*
X40473333Y66482143D01*
X41330476Y66244048D02*
X41330476Y65577381D01*
X41092381Y66625000D02*
X40854286Y65910715D01*
X40854286Y65910715D02*
X41473333Y65910715D01*
%TO.C,C5*%
X62063333Y65672620D02*
X62015714Y65625000D01*
X62015714Y65625000D02*
X61872857Y65577381D01*
X61872857Y65577381D02*
X61777619Y65577381D01*
X61777619Y65577381D02*
X61634762Y65625000D01*
X61634762Y65625000D02*
X61539524Y65720239D01*
X61539524Y65720239D02*
X61491905Y65815477D01*
X61491905Y65815477D02*
X61444286Y66005953D01*
X61444286Y66005953D02*
X61444286Y66148810D01*
X61444286Y66148810D02*
X61491905Y66339286D01*
X61491905Y66339286D02*
X61539524Y66434524D01*
X61539524Y66434524D02*
X61634762Y66529762D01*
X61634762Y66529762D02*
X61777619Y66577381D01*
X61777619Y66577381D02*
X61872857Y66577381D01*
X61872857Y66577381D02*
X62015714Y66529762D01*
X62015714Y66529762D02*
X62063333Y66482143D01*
X62968095Y66577381D02*
X62491905Y66577381D01*
X62491905Y66577381D02*
X62444286Y66101191D01*
X62444286Y66101191D02*
X62491905Y66148810D01*
X62491905Y66148810D02*
X62587143Y66196429D01*
X62587143Y66196429D02*
X62825238Y66196429D01*
X62825238Y66196429D02*
X62920476Y66148810D01*
X62920476Y66148810D02*
X62968095Y66101191D01*
X62968095Y66101191D02*
X63015714Y66005953D01*
X63015714Y66005953D02*
X63015714Y65767858D01*
X63015714Y65767858D02*
X62968095Y65672620D01*
X62968095Y65672620D02*
X62920476Y65625000D01*
X62920476Y65625000D02*
X62825238Y65577381D01*
X62825238Y65577381D02*
X62587143Y65577381D01*
X62587143Y65577381D02*
X62491905Y65625000D01*
X62491905Y65625000D02*
X62444286Y65672620D01*
%TO.C,C7*%
X10527380Y41743334D02*
X10575000Y41695715D01*
X10575000Y41695715D02*
X10622619Y41552858D01*
X10622619Y41552858D02*
X10622619Y41457620D01*
X10622619Y41457620D02*
X10575000Y41314763D01*
X10575000Y41314763D02*
X10479761Y41219525D01*
X10479761Y41219525D02*
X10384523Y41171906D01*
X10384523Y41171906D02*
X10194047Y41124287D01*
X10194047Y41124287D02*
X10051190Y41124287D01*
X10051190Y41124287D02*
X9860714Y41171906D01*
X9860714Y41171906D02*
X9765476Y41219525D01*
X9765476Y41219525D02*
X9670238Y41314763D01*
X9670238Y41314763D02*
X9622619Y41457620D01*
X9622619Y41457620D02*
X9622619Y41552858D01*
X9622619Y41552858D02*
X9670238Y41695715D01*
X9670238Y41695715D02*
X9717857Y41743334D01*
X9622619Y42076668D02*
X9622619Y42743334D01*
X9622619Y42743334D02*
X10622619Y42314763D01*
%TO.C,C6*%
X103408333Y85230620D02*
X103360714Y85183000D01*
X103360714Y85183000D02*
X103217857Y85135381D01*
X103217857Y85135381D02*
X103122619Y85135381D01*
X103122619Y85135381D02*
X102979762Y85183000D01*
X102979762Y85183000D02*
X102884524Y85278239D01*
X102884524Y85278239D02*
X102836905Y85373477D01*
X102836905Y85373477D02*
X102789286Y85563953D01*
X102789286Y85563953D02*
X102789286Y85706810D01*
X102789286Y85706810D02*
X102836905Y85897286D01*
X102836905Y85897286D02*
X102884524Y85992524D01*
X102884524Y85992524D02*
X102979762Y86087762D01*
X102979762Y86087762D02*
X103122619Y86135381D01*
X103122619Y86135381D02*
X103217857Y86135381D01*
X103217857Y86135381D02*
X103360714Y86087762D01*
X103360714Y86087762D02*
X103408333Y86040143D01*
X104265476Y86135381D02*
X104075000Y86135381D01*
X104075000Y86135381D02*
X103979762Y86087762D01*
X103979762Y86087762D02*
X103932143Y86040143D01*
X103932143Y86040143D02*
X103836905Y85897286D01*
X103836905Y85897286D02*
X103789286Y85706810D01*
X103789286Y85706810D02*
X103789286Y85325858D01*
X103789286Y85325858D02*
X103836905Y85230620D01*
X103836905Y85230620D02*
X103884524Y85183000D01*
X103884524Y85183000D02*
X103979762Y85135381D01*
X103979762Y85135381D02*
X104170238Y85135381D01*
X104170238Y85135381D02*
X104265476Y85183000D01*
X104265476Y85183000D02*
X104313095Y85230620D01*
X104313095Y85230620D02*
X104360714Y85325858D01*
X104360714Y85325858D02*
X104360714Y85563953D01*
X104360714Y85563953D02*
X104313095Y85659191D01*
X104313095Y85659191D02*
X104265476Y85706810D01*
X104265476Y85706810D02*
X104170238Y85754429D01*
X104170238Y85754429D02*
X103979762Y85754429D01*
X103979762Y85754429D02*
X103884524Y85706810D01*
X103884524Y85706810D02*
X103836905Y85659191D01*
X103836905Y85659191D02*
X103789286Y85563953D01*
%TO.C,SW1*%
X18036000Y11037668D02*
X18083619Y11180525D01*
X18083619Y11180525D02*
X18083619Y11418620D01*
X18083619Y11418620D02*
X18036000Y11513858D01*
X18036000Y11513858D02*
X17988380Y11561477D01*
X17988380Y11561477D02*
X17893142Y11609096D01*
X17893142Y11609096D02*
X17797904Y11609096D01*
X17797904Y11609096D02*
X17702666Y11561477D01*
X17702666Y11561477D02*
X17655047Y11513858D01*
X17655047Y11513858D02*
X17607428Y11418620D01*
X17607428Y11418620D02*
X17559809Y11228144D01*
X17559809Y11228144D02*
X17512190Y11132906D01*
X17512190Y11132906D02*
X17464571Y11085287D01*
X17464571Y11085287D02*
X17369333Y11037668D01*
X17369333Y11037668D02*
X17274095Y11037668D01*
X17274095Y11037668D02*
X17178857Y11085287D01*
X17178857Y11085287D02*
X17131238Y11132906D01*
X17131238Y11132906D02*
X17083619Y11228144D01*
X17083619Y11228144D02*
X17083619Y11466239D01*
X17083619Y11466239D02*
X17131238Y11609096D01*
X17083619Y11942430D02*
X18083619Y12180525D01*
X18083619Y12180525D02*
X17369333Y12371001D01*
X17369333Y12371001D02*
X18083619Y12561477D01*
X18083619Y12561477D02*
X17083619Y12799572D01*
X18083619Y13704334D02*
X18083619Y13132906D01*
X18083619Y13418620D02*
X17083619Y13418620D01*
X17083619Y13418620D02*
X17226476Y13323382D01*
X17226476Y13323382D02*
X17321714Y13228144D01*
X17321714Y13228144D02*
X17369333Y13132906D01*
%TO.C,C1*%
X91380333Y13542620D02*
X91332714Y13495000D01*
X91332714Y13495000D02*
X91189857Y13447381D01*
X91189857Y13447381D02*
X91094619Y13447381D01*
X91094619Y13447381D02*
X90951762Y13495000D01*
X90951762Y13495000D02*
X90856524Y13590239D01*
X90856524Y13590239D02*
X90808905Y13685477D01*
X90808905Y13685477D02*
X90761286Y13875953D01*
X90761286Y13875953D02*
X90761286Y14018810D01*
X90761286Y14018810D02*
X90808905Y14209286D01*
X90808905Y14209286D02*
X90856524Y14304524D01*
X90856524Y14304524D02*
X90951762Y14399762D01*
X90951762Y14399762D02*
X91094619Y14447381D01*
X91094619Y14447381D02*
X91189857Y14447381D01*
X91189857Y14447381D02*
X91332714Y14399762D01*
X91332714Y14399762D02*
X91380333Y14352143D01*
X92332714Y13447381D02*
X91761286Y13447381D01*
X92047000Y13447381D02*
X92047000Y14447381D01*
X92047000Y14447381D02*
X91951762Y14304524D01*
X91951762Y14304524D02*
X91856524Y14209286D01*
X91856524Y14209286D02*
X91761286Y14161667D01*
%TO.C,X1*%
X88247476Y78007381D02*
X88914142Y77007381D01*
X88914142Y78007381D02*
X88247476Y77007381D01*
X89818904Y77007381D02*
X89247476Y77007381D01*
X89533190Y77007381D02*
X89533190Y78007381D01*
X89533190Y78007381D02*
X89437952Y77864524D01*
X89437952Y77864524D02*
X89342714Y77769286D01*
X89342714Y77769286D02*
X89247476Y77721667D01*
%TO.C,JP1*%
X11231666Y55865381D02*
X11231666Y55151096D01*
X11231666Y55151096D02*
X11184047Y55008239D01*
X11184047Y55008239D02*
X11088809Y54913000D01*
X11088809Y54913000D02*
X10945952Y54865381D01*
X10945952Y54865381D02*
X10850714Y54865381D01*
X11707857Y54865381D02*
X11707857Y55865381D01*
X11707857Y55865381D02*
X12088809Y55865381D01*
X12088809Y55865381D02*
X12184047Y55817762D01*
X12184047Y55817762D02*
X12231666Y55770143D01*
X12231666Y55770143D02*
X12279285Y55674905D01*
X12279285Y55674905D02*
X12279285Y55532048D01*
X12279285Y55532048D02*
X12231666Y55436810D01*
X12231666Y55436810D02*
X12184047Y55389191D01*
X12184047Y55389191D02*
X12088809Y55341572D01*
X12088809Y55341572D02*
X11707857Y55341572D01*
X13231666Y54865381D02*
X12660238Y54865381D01*
X12945952Y54865381D02*
X12945952Y55865381D01*
X12945952Y55865381D02*
X12850714Y55722524D01*
X12850714Y55722524D02*
X12755476Y55627286D01*
X12755476Y55627286D02*
X12660238Y55579667D01*
%TO.C,U3*%
X101600095Y56969381D02*
X101600095Y56159858D01*
X101600095Y56159858D02*
X101647714Y56064620D01*
X101647714Y56064620D02*
X101695333Y56017000D01*
X101695333Y56017000D02*
X101790571Y55969381D01*
X101790571Y55969381D02*
X101981047Y55969381D01*
X101981047Y55969381D02*
X102076285Y56017000D01*
X102076285Y56017000D02*
X102123904Y56064620D01*
X102123904Y56064620D02*
X102171523Y56159858D01*
X102171523Y56159858D02*
X102171523Y56969381D01*
X102552476Y56969381D02*
X103171523Y56969381D01*
X103171523Y56969381D02*
X102838190Y56588429D01*
X102838190Y56588429D02*
X102981047Y56588429D01*
X102981047Y56588429D02*
X103076285Y56540810D01*
X103076285Y56540810D02*
X103123904Y56493191D01*
X103123904Y56493191D02*
X103171523Y56397953D01*
X103171523Y56397953D02*
X103171523Y56159858D01*
X103171523Y56159858D02*
X103123904Y56064620D01*
X103123904Y56064620D02*
X103076285Y56017000D01*
X103076285Y56017000D02*
X102981047Y55969381D01*
X102981047Y55969381D02*
X102695333Y55969381D01*
X102695333Y55969381D02*
X102600095Y56017000D01*
X102600095Y56017000D02*
X102552476Y56064620D01*
%TO.C,J3*%
X72721666Y88675381D02*
X72721666Y87961096D01*
X72721666Y87961096D02*
X72674047Y87818239D01*
X72674047Y87818239D02*
X72578809Y87723000D01*
X72578809Y87723000D02*
X72435952Y87675381D01*
X72435952Y87675381D02*
X72340714Y87675381D01*
X73102619Y88675381D02*
X73721666Y88675381D01*
X73721666Y88675381D02*
X73388333Y88294429D01*
X73388333Y88294429D02*
X73531190Y88294429D01*
X73531190Y88294429D02*
X73626428Y88246810D01*
X73626428Y88246810D02*
X73674047Y88199191D01*
X73674047Y88199191D02*
X73721666Y88103953D01*
X73721666Y88103953D02*
X73721666Y87865858D01*
X73721666Y87865858D02*
X73674047Y87770620D01*
X73674047Y87770620D02*
X73626428Y87723000D01*
X73626428Y87723000D02*
X73531190Y87675381D01*
X73531190Y87675381D02*
X73245476Y87675381D01*
X73245476Y87675381D02*
X73150238Y87723000D01*
X73150238Y87723000D02*
X73102619Y87770620D01*
%TO.C,U1*%
X42682095Y87708381D02*
X42682095Y86898858D01*
X42682095Y86898858D02*
X42729714Y86803620D01*
X42729714Y86803620D02*
X42777333Y86756000D01*
X42777333Y86756000D02*
X42872571Y86708381D01*
X42872571Y86708381D02*
X43063047Y86708381D01*
X43063047Y86708381D02*
X43158285Y86756000D01*
X43158285Y86756000D02*
X43205904Y86803620D01*
X43205904Y86803620D02*
X43253523Y86898858D01*
X43253523Y86898858D02*
X43253523Y87708381D01*
X44253523Y86708381D02*
X43682095Y86708381D01*
X43967809Y86708381D02*
X43967809Y87708381D01*
X43967809Y87708381D02*
X43872571Y87565524D01*
X43872571Y87565524D02*
X43777333Y87470286D01*
X43777333Y87470286D02*
X43682095Y87422667D01*
%TO.C,R4*%
X64506333Y89707381D02*
X64173000Y90183572D01*
X63934905Y89707381D02*
X63934905Y90707381D01*
X63934905Y90707381D02*
X64315857Y90707381D01*
X64315857Y90707381D02*
X64411095Y90659762D01*
X64411095Y90659762D02*
X64458714Y90612143D01*
X64458714Y90612143D02*
X64506333Y90516905D01*
X64506333Y90516905D02*
X64506333Y90374048D01*
X64506333Y90374048D02*
X64458714Y90278810D01*
X64458714Y90278810D02*
X64411095Y90231191D01*
X64411095Y90231191D02*
X64315857Y90183572D01*
X64315857Y90183572D02*
X63934905Y90183572D01*
X65363476Y90374048D02*
X65363476Y89707381D01*
X65125381Y90755000D02*
X64887286Y90040715D01*
X64887286Y90040715D02*
X65506333Y90040715D01*
%TO.C,J2*%
X102155666Y23295781D02*
X102155666Y22581496D01*
X102155666Y22581496D02*
X102108047Y22438639D01*
X102108047Y22438639D02*
X102012809Y22343400D01*
X102012809Y22343400D02*
X101869952Y22295781D01*
X101869952Y22295781D02*
X101774714Y22295781D01*
X102584238Y23200543D02*
X102631857Y23248162D01*
X102631857Y23248162D02*
X102727095Y23295781D01*
X102727095Y23295781D02*
X102965190Y23295781D01*
X102965190Y23295781D02*
X103060428Y23248162D01*
X103060428Y23248162D02*
X103108047Y23200543D01*
X103108047Y23200543D02*
X103155666Y23105305D01*
X103155666Y23105305D02*
X103155666Y23010067D01*
X103155666Y23010067D02*
X103108047Y22867210D01*
X103108047Y22867210D02*
X102536619Y22295781D01*
X102536619Y22295781D02*
X103155666Y22295781D01*
D11*
%TO.C,R5*%
X66817000Y83408000D02*
X70657000Y83408000D01*
X66817000Y85248000D02*
X70657000Y85248000D01*
%TO.C,D1*%
X67177000Y80992000D02*
X67177000Y80836000D01*
X67177000Y78676000D02*
X67177000Y78520000D01*
X69778129Y80835836D02*
G75*
G03*
X67696040Y80835999I-1041129J-1079836D01*
G01*
X67177001Y78520485D02*
G75*
G03*
X70409334Y78677392I1559999J1235515D01*
G01*
X67696040Y78676001D02*
G75*
G03*
X69778129Y78676164I1040960J1079999D01*
G01*
X70409334Y80834608D02*
G75*
G03*
X67177001Y80991515I-1672334J-1078608D01*
G01*
%TO.C,R2*%
X13112000Y72024000D02*
X13112000Y68184000D01*
X11272000Y72024000D02*
X11272000Y68184000D01*
%TO.C,J1*%
X83621500Y23051000D02*
X82621500Y23051000D01*
X82621500Y23051000D02*
X83121500Y22051000D01*
X83121500Y22051000D02*
X83621500Y23051000D01*
X88331500Y16431000D02*
X88331500Y7311000D01*
X61041500Y16431000D02*
X61041500Y7311000D01*
X56941500Y16431000D02*
X56941500Y7311000D01*
X29651500Y16431000D02*
X88331500Y16431000D01*
X88331500Y7311000D02*
X29651500Y7311000D01*
X29651500Y7311000D02*
X29651500Y16431000D01*
%TO.C,R3*%
X15128000Y17622000D02*
X11288000Y17622000D01*
X15128000Y19462000D02*
X11288000Y19462000D01*
%TO.C,U2*%
X14358000Y78426000D02*
X32378000Y78426000D01*
X32378000Y78426000D02*
X32378000Y88706000D01*
X14418000Y80916000D02*
X32318000Y80916000D01*
X32318000Y80916000D02*
X32318000Y86216000D01*
X14418000Y82566000D02*
X14418000Y80916000D01*
X14418000Y86216000D02*
X14418000Y84566000D01*
X32318000Y86216000D02*
X14418000Y86216000D01*
X14358000Y88706000D02*
X14358000Y78426000D01*
X32378000Y88706000D02*
X14358000Y88706000D01*
X14418000Y82566000D02*
G75*
G03*
X14418000Y84566000I0J1000000D01*
G01*
%TO.C,U5*%
X52010000Y88766000D02*
X52010000Y68206000D01*
X52010000Y68206000D02*
X62290000Y68206000D01*
X54500000Y88706000D02*
X54500000Y68266000D01*
X54500000Y68266000D02*
X59800000Y68266000D01*
X56150000Y88706000D02*
X54500000Y88706000D01*
X59800000Y88706000D02*
X58150000Y88706000D01*
X59800000Y68266000D02*
X59800000Y88706000D01*
X62290000Y88766000D02*
X52010000Y88766000D01*
X62290000Y68206000D02*
X62290000Y88766000D01*
X56150000Y88706000D02*
G75*
G03*
X58150000Y88706000I1000000J0D01*
G01*
%TO.C,U4*%
X16908000Y73466000D02*
X16908000Y22546000D01*
X16908000Y22546000D02*
X29828000Y22546000D01*
X22368000Y73466000D02*
X16908000Y73466000D01*
X29828000Y73466000D02*
X24368000Y73466000D01*
X29828000Y22546000D02*
X29828000Y73466000D01*
X22368000Y73466000D02*
G75*
G03*
X24368000Y73466000I1000000J0D01*
G01*
%TO.C,U7*%
X39260000Y64322000D02*
X39260000Y28642000D01*
X39260000Y28642000D02*
X52180000Y28642000D01*
X44720000Y64322000D02*
X39260000Y64322000D01*
X52180000Y64322000D02*
X46720000Y64322000D01*
X52180000Y28642000D02*
X52180000Y64322000D01*
X44720000Y64322000D02*
G75*
G03*
X46720000Y64322000I1000000J0D01*
G01*
%TO.C,U8*%
X60342000Y64322000D02*
X60342000Y28642000D01*
X60342000Y28642000D02*
X73262000Y28642000D01*
X65802000Y64322000D02*
X60342000Y64322000D01*
X73262000Y64322000D02*
X67802000Y64322000D01*
X73262000Y28642000D02*
X73262000Y64322000D01*
X65802000Y64322000D02*
G75*
G03*
X67802000Y64322000I1000000J0D01*
G01*
%TO.C,U6*%
X79315000Y59302000D02*
X79315000Y28582000D01*
X79315000Y28582000D02*
X97215000Y28582000D01*
X81805000Y59242000D02*
X81805000Y28642000D01*
X81805000Y28642000D02*
X94725000Y28642000D01*
X87265000Y59242000D02*
X81805000Y59242000D01*
X94725000Y59242000D02*
X89265000Y59242000D01*
X94725000Y28642000D02*
X94725000Y59242000D01*
X97215000Y59302000D02*
X79315000Y59302000D01*
X97215000Y28582000D02*
X97215000Y59302000D01*
X87265000Y59242000D02*
G75*
G03*
X89265000Y59242000I1000000J0D01*
G01*
%TO.C,R1*%
X11272000Y49896000D02*
X11272000Y53736000D01*
X13112000Y49896000D02*
X13112000Y53736000D01*
%TO.C,C2*%
X13262000Y85622000D02*
X13247000Y85622000D01*
X13262000Y85622000D02*
X13262000Y81082000D01*
X11137000Y85622000D02*
X11122000Y85622000D01*
X11122000Y85622000D02*
X11122000Y81082000D01*
X13262000Y81082000D02*
X13247000Y81082000D01*
X11137000Y81082000D02*
X11122000Y81082000D01*
%TO.C,C3*%
X90702000Y59890000D02*
X90702000Y59905000D01*
X90702000Y59890000D02*
X86162000Y59890000D01*
X90702000Y62015000D02*
X90702000Y62030000D01*
X90702000Y62030000D02*
X86162000Y62030000D01*
X86162000Y59890000D02*
X86162000Y59905000D01*
X86162000Y62015000D02*
X86162000Y62030000D01*
%TO.C,C4*%
X48030000Y65224000D02*
X48030000Y65239000D01*
X48030000Y65224000D02*
X43490000Y65224000D01*
X48030000Y67349000D02*
X48030000Y67364000D01*
X48030000Y67364000D02*
X43490000Y67364000D01*
X43490000Y65224000D02*
X43490000Y65239000D01*
X43490000Y67349000D02*
X43490000Y67364000D01*
%TO.C,C5*%
X69366000Y64970000D02*
X69366000Y64985000D01*
X69366000Y64970000D02*
X64826000Y64970000D01*
X69366000Y67095000D02*
X69366000Y67110000D01*
X69366000Y67110000D02*
X64826000Y67110000D01*
X64826000Y64970000D02*
X64826000Y64985000D01*
X64826000Y67095000D02*
X64826000Y67110000D01*
%TO.C,C7*%
X13262000Y44474000D02*
X13247000Y44474000D01*
X13262000Y44474000D02*
X13262000Y39934000D01*
X11137000Y44474000D02*
X11122000Y44474000D01*
X11122000Y44474000D02*
X11122000Y39934000D01*
X13262000Y39934000D02*
X13247000Y39934000D01*
X11137000Y39934000D02*
X11122000Y39934000D01*
%TO.C,C6*%
X96185000Y86668000D02*
X96185000Y86653000D01*
X96185000Y86668000D02*
X100725000Y86668000D01*
X96185000Y84543000D02*
X96185000Y84528000D01*
X96185000Y84528000D02*
X100725000Y84528000D01*
X100725000Y86668000D02*
X100725000Y86653000D01*
X100725000Y84543000D02*
X100725000Y84528000D01*
%TO.C,SW1*%
X14121000Y15871000D02*
X12621000Y15871000D01*
X10121000Y14621000D02*
X10121000Y10121000D01*
X16621000Y10121000D02*
X16621000Y14621000D01*
X12621000Y8871000D02*
X14121000Y8871000D01*
%TO.C,C1*%
X88742225Y11635000D02*
X89242225Y11635000D01*
X88992225Y11885000D02*
X88992225Y11385000D01*
X91547000Y12740000D02*
X91547000Y7580000D01*
X91587000Y12740000D02*
X91587000Y7580000D01*
X91627000Y12739000D02*
X91627000Y7581000D01*
X91667000Y12738000D02*
X91667000Y7582000D01*
X91707000Y12736000D02*
X91707000Y7584000D01*
X91747000Y12733000D02*
X91747000Y7587000D01*
X91787000Y12729000D02*
X91787000Y11200000D01*
X91787000Y9120000D02*
X91787000Y7591000D01*
X91827000Y12725000D02*
X91827000Y11200000D01*
X91827000Y9120000D02*
X91827000Y7595000D01*
X91867000Y12721000D02*
X91867000Y11200000D01*
X91867000Y9120000D02*
X91867000Y7599000D01*
X91907000Y12716000D02*
X91907000Y11200000D01*
X91907000Y9120000D02*
X91907000Y7604000D01*
X91947000Y12710000D02*
X91947000Y11200000D01*
X91947000Y9120000D02*
X91947000Y7610000D01*
X91987000Y12703000D02*
X91987000Y11200000D01*
X91987000Y9120000D02*
X91987000Y7617000D01*
X92027000Y12696000D02*
X92027000Y11200000D01*
X92027000Y9120000D02*
X92027000Y7624000D01*
X92067000Y12688000D02*
X92067000Y11200000D01*
X92067000Y9120000D02*
X92067000Y7632000D01*
X92107000Y12680000D02*
X92107000Y11200000D01*
X92107000Y9120000D02*
X92107000Y7640000D01*
X92147000Y12671000D02*
X92147000Y11200000D01*
X92147000Y9120000D02*
X92147000Y7649000D01*
X92187000Y12661000D02*
X92187000Y11200000D01*
X92187000Y9120000D02*
X92187000Y7659000D01*
X92227000Y12651000D02*
X92227000Y11200000D01*
X92227000Y9120000D02*
X92227000Y7669000D01*
X92268000Y12640000D02*
X92268000Y11200000D01*
X92268000Y9120000D02*
X92268000Y7680000D01*
X92308000Y12628000D02*
X92308000Y11200000D01*
X92308000Y9120000D02*
X92308000Y7692000D01*
X92348000Y12615000D02*
X92348000Y11200000D01*
X92348000Y9120000D02*
X92348000Y7705000D01*
X92388000Y12602000D02*
X92388000Y11200000D01*
X92388000Y9120000D02*
X92388000Y7718000D01*
X92428000Y12588000D02*
X92428000Y11200000D01*
X92428000Y9120000D02*
X92428000Y7732000D01*
X92468000Y12574000D02*
X92468000Y11200000D01*
X92468000Y9120000D02*
X92468000Y7746000D01*
X92508000Y12558000D02*
X92508000Y11200000D01*
X92508000Y9120000D02*
X92508000Y7762000D01*
X92548000Y12542000D02*
X92548000Y11200000D01*
X92548000Y9120000D02*
X92548000Y7778000D01*
X92588000Y12525000D02*
X92588000Y11200000D01*
X92588000Y9120000D02*
X92588000Y7795000D01*
X92628000Y12508000D02*
X92628000Y11200000D01*
X92628000Y9120000D02*
X92628000Y7812000D01*
X92668000Y12489000D02*
X92668000Y11200000D01*
X92668000Y9120000D02*
X92668000Y7831000D01*
X92708000Y12470000D02*
X92708000Y11200000D01*
X92708000Y9120000D02*
X92708000Y7850000D01*
X92748000Y12450000D02*
X92748000Y11200000D01*
X92748000Y9120000D02*
X92748000Y7870000D01*
X92788000Y12428000D02*
X92788000Y11200000D01*
X92788000Y9120000D02*
X92788000Y7892000D01*
X92828000Y12407000D02*
X92828000Y11200000D01*
X92828000Y9120000D02*
X92828000Y7913000D01*
X92868000Y12384000D02*
X92868000Y11200000D01*
X92868000Y9120000D02*
X92868000Y7936000D01*
X92908000Y12360000D02*
X92908000Y11200000D01*
X92908000Y9120000D02*
X92908000Y7960000D01*
X92948000Y12335000D02*
X92948000Y11200000D01*
X92948000Y9120000D02*
X92948000Y7985000D01*
X92988000Y12309000D02*
X92988000Y11200000D01*
X92988000Y9120000D02*
X92988000Y8011000D01*
X93028000Y12282000D02*
X93028000Y11200000D01*
X93028000Y9120000D02*
X93028000Y8038000D01*
X93068000Y12255000D02*
X93068000Y11200000D01*
X93068000Y9120000D02*
X93068000Y8065000D01*
X93108000Y12225000D02*
X93108000Y11200000D01*
X93108000Y9120000D02*
X93108000Y8095000D01*
X93148000Y12195000D02*
X93148000Y11200000D01*
X93148000Y9120000D02*
X93148000Y8125000D01*
X93188000Y12164000D02*
X93188000Y11200000D01*
X93188000Y9120000D02*
X93188000Y8156000D01*
X93228000Y12131000D02*
X93228000Y11200000D01*
X93228000Y9120000D02*
X93228000Y8189000D01*
X93268000Y12097000D02*
X93268000Y11200000D01*
X93268000Y9120000D02*
X93268000Y8223000D01*
X93308000Y12061000D02*
X93308000Y11200000D01*
X93308000Y9120000D02*
X93308000Y8259000D01*
X93348000Y12024000D02*
X93348000Y11200000D01*
X93348000Y9120000D02*
X93348000Y8296000D01*
X93388000Y11986000D02*
X93388000Y11200000D01*
X93388000Y9120000D02*
X93388000Y8334000D01*
X93428000Y11945000D02*
X93428000Y11200000D01*
X93428000Y9120000D02*
X93428000Y8375000D01*
X93468000Y11903000D02*
X93468000Y11200000D01*
X93468000Y9120000D02*
X93468000Y8417000D01*
X93508000Y11859000D02*
X93508000Y11200000D01*
X93508000Y9120000D02*
X93508000Y8461000D01*
X93548000Y11813000D02*
X93548000Y11200000D01*
X93548000Y9120000D02*
X93548000Y8507000D01*
X93588000Y11765000D02*
X93588000Y11200000D01*
X93588000Y9120000D02*
X93588000Y8555000D01*
X93628000Y11714000D02*
X93628000Y11200000D01*
X93628000Y9120000D02*
X93628000Y8606000D01*
X93668000Y11660000D02*
X93668000Y11200000D01*
X93668000Y9120000D02*
X93668000Y8660000D01*
X93708000Y11603000D02*
X93708000Y11200000D01*
X93708000Y9120000D02*
X93708000Y8717000D01*
X93748000Y11543000D02*
X93748000Y11200000D01*
X93748000Y9120000D02*
X93748000Y8777000D01*
X93788000Y11479000D02*
X93788000Y11200000D01*
X93788000Y9120000D02*
X93788000Y8841000D01*
X93828000Y11411000D02*
X93828000Y11200000D01*
X93828000Y9120000D02*
X93828000Y8909000D01*
X93868000Y11338000D02*
X93868000Y8982000D01*
X93908000Y11258000D02*
X93908000Y9062000D01*
X93948000Y11171000D02*
X93948000Y9149000D01*
X93988000Y11075000D02*
X93988000Y9245000D01*
X94028000Y10965000D02*
X94028000Y9355000D01*
X94068000Y10837000D02*
X94068000Y9483000D01*
X94108000Y10678000D02*
X94108000Y9642000D01*
X94148000Y10444000D02*
X94148000Y9876000D01*
X94167000Y10160000D02*
G75*
G03*
X94167000Y10160000I-2620000J0D01*
G01*
%TO.C,X1*%
X104409000Y81126000D02*
X92259000Y81126000D01*
X92259000Y81126000D02*
X92259000Y68976000D01*
X105159000Y68976000D02*
X105159000Y80376000D01*
X93009000Y68226000D02*
X104409000Y68226000D01*
X105159000Y80376000D02*
G75*
G03*
X104409000Y81126000I-750000J0D01*
G01*
X104409000Y68226000D02*
G75*
G03*
X105159000Y68976000I0J750000D01*
G01*
X92259000Y68976000D02*
G75*
G03*
X93009000Y68226000I750000J0D01*
G01*
%TO.C,JP1*%
X13395000Y56328000D02*
X12065000Y56328000D01*
X13395000Y57658000D02*
X13395000Y56328000D01*
X13395000Y58928000D02*
X13395000Y64068000D01*
X13395000Y58928000D02*
X10735000Y58928000D01*
X13395000Y64068000D02*
X10735000Y64068000D01*
X10735000Y58928000D02*
X10735000Y64068000D01*
%TO.C,U3*%
X99712000Y55432000D02*
X99712000Y45152000D01*
X99712000Y45152000D02*
X105012000Y45152000D01*
X101362000Y55432000D02*
X99712000Y55432000D01*
X105012000Y55432000D02*
X103362000Y55432000D01*
X105012000Y45152000D02*
X105012000Y55432000D01*
X101362000Y55432000D02*
G75*
G03*
X103362000Y55432000I1000000J0D01*
G01*
%TO.C,J3*%
X68926000Y88840000D02*
X68926000Y90170000D01*
X70256000Y88840000D02*
X68926000Y88840000D01*
X71526000Y88840000D02*
X74126000Y88840000D01*
X71526000Y88840000D02*
X71526000Y91500000D01*
X74126000Y88840000D02*
X74126000Y91500000D01*
X71526000Y91500000D02*
X74126000Y91500000D01*
%TO.C,U1*%
X38304000Y86231000D02*
X38304000Y68211000D01*
X38304000Y68211000D02*
X48584000Y68211000D01*
X40794000Y86171000D02*
X40794000Y68271000D01*
X40794000Y68271000D02*
X46094000Y68271000D01*
X42444000Y86171000D02*
X40794000Y86171000D01*
X46094000Y86171000D02*
X44444000Y86171000D01*
X46094000Y68271000D02*
X46094000Y86171000D01*
X48584000Y86231000D02*
X38304000Y86231000D01*
X48584000Y68211000D02*
X48584000Y86231000D01*
X42444000Y86171000D02*
G75*
G03*
X44444000Y86171000I1000000J0D01*
G01*
%TO.C,R4*%
X63007000Y91090000D02*
X66847000Y91090000D01*
X63007000Y89250000D02*
X66847000Y89250000D01*
%TD*%
M02*
