M48
; DRILL file {KiCad 7.0.2-0} date 2023 May 22, Monday 09:34:16
; FORMAT={-:-/ absolute / metric / decimal}
; #@! TF.CreationDate,2023-05-22T09:34:16+09:00
; #@! TF.GenerationSoftware,Kicad,Pcbnew,7.0.2-0
; #@! TF.FileFunction,Plated,1,2,PTH
FMAT,2
METRIC
; #@! TA.AperFunction,Plated,PTH,ViaDrill
T1C0.400
; #@! TA.AperFunction,Plated,PTH,ComponentDrill
T2C0.700
; #@! TA.AperFunction,Plated,PTH,ComponentDrill
T3C0.800
; #@! TA.AperFunction,Plated,PTH,ComponentDrill
T4C0.900
; #@! TA.AperFunction,Plated,PTH,ComponentDrill
T5C1.000
; #@! TA.AperFunction,Plated,PTH,ComponentDrill
T6C1.100
%
G90
G05
T1
X13.97Y59.436
X13.97Y54.356
X18.034Y64.516
X18.034Y61.651
X18.034Y22.86
X18.133Y59.236
X18.288Y82.804
X18.288Y65.786
X18.796Y49.276
X18.796Y42.926
X18.796Y30.226
X18.796Y26.162
X18.796Y23.876
X19.031Y12.926
X19.558Y51.816
X19.558Y40.386
X19.558Y31.496
X19.558Y11.938
X20.32Y48.006
X20.32Y44.196
X20.32Y28.956
X20.32Y10.922
X20.828Y89.662
X21.082Y55.372
X21.082Y36.576
X21.082Y10.16
X21.844Y53.086
X21.844Y39.116
X21.844Y9.398
X22.571Y8.601
X22.606Y57.912
X22.606Y34.036
X23.271Y76.708
X23.288Y21.551
X23.368Y85.598
X23.368Y50.292
X23.368Y41.656
X24.13Y60.96
X24.13Y23.114
X25.908Y90.424
X25.908Y56.896
X25.908Y25.146
X26.065Y82.042
X26.319Y76.708
X26.67Y70.866
X26.67Y61.976
X26.67Y13.462
X27.432Y72.136
X27.432Y14.986
X28.194Y64.389
X28.321Y15.875
X28.351Y76.708
X28.448Y89.662
X29.21Y34.036
X29.261Y16.547
X30.861Y18.161
X31.145Y77.941
X32.512Y31.967
X32.512Y27.686
X33.274Y71.59
X33.274Y69.596
X33.274Y14.224
X33.998Y37.592
X34.036Y39.116
X34.447Y83.058
X34.955Y36.576
X35.306Y68.326
X35.56Y38.354
X35.717Y84.836
X35.814Y87.376
X35.971Y76.454
X35.971Y62.992
X35.971Y32.004
X36.031Y77.941
X37.241Y85.598
X37.241Y78.594
X37.338Y25.871
X37.338Y13.462
X38.862Y13.462
X39.37Y67.31
X41.402Y45.262
X41.402Y31.242
X41.559Y68.326
X41.813Y74.676
X42.164Y86.106
X42.164Y54.356
X42.201Y37.592
X42.575Y72.39
X42.926Y51.562
X42.926Y35.814
X43.688Y81.28
X43.688Y49.022
X43.688Y32.512
X44.45Y46.482
X44.861Y65.169
X44.958Y14.224
X45.021Y22.669
X45.198Y29.247
X45.212Y43.434
X45.369Y83.566
X45.369Y32.512
X45.593Y90.424
X46.117Y40.132
X46.131Y35.292
X46.893Y42.672
X47.147Y90.678
X47.498Y24.13
X47.498Y14.986
X47.655Y40.094
X47.655Y38.316
X48.593Y62.521
X48.925Y24.892
X49.617Y69.896
X49.941Y47.752
X50.015Y15.838
X50.292Y23.114
X50.318Y65.155
X50.449Y78.486
X50.449Y75.692
X50.449Y74.676
X50.449Y70.866
X50.449Y69.342
X50.546Y86.106
X50.546Y82.296
X51.308Y72.136
X51.308Y68.326
X51.308Y37.592
X51.562Y14.224
X52.578Y27.686
X55.118Y60.452
X55.181Y26.479
X56.037Y89.408
X56.388Y87.376
X56.388Y57.912
X56.388Y28.411
X57.404Y84.836
X57.404Y62.992
X57.404Y27.686
X57.658Y23.114
X57.721Y12.737
X58.674Y67.31
X58.909Y12.192
X58.928Y27.686
X59.085Y72.136
X59.604Y90.025
X60.198Y26.924
X60.261Y11.43
X60.96Y65.532
X61.371Y47.752
X61.371Y38.862
X61.468Y26.162
X61.468Y10.668
X61.625Y61.722
X62.387Y49.276
X62.738Y27.686
X62.801Y8.89
X63.283Y78.232
X63.419Y55.155
X63.5Y60.706
X63.5Y26.924
X64.008Y15.113
X64.008Y12.573
X64.262Y52.832
X64.262Y26.162
X64.419Y68.326
X64.927Y72.136
X65.278Y26.162
X65.278Y9.652
X65.532Y35.052
X65.532Y33.274
X66.294Y46.482
X66.294Y44.196
X66.294Y23.114
X66.548Y14.224
X66.548Y11.34
X67.056Y37.592
X67.721Y67.056
X67.975Y69.596
X68.072Y45.212
X68.737Y38.862
X69.245Y42.672
X69.462Y30.226
X69.499Y40.132
X70.261Y49.022
X70.358Y13.462
X70.477Y33.405
X70.515Y22.606
X70.769Y75.946
X71.023Y29.972
X71.665Y46.482
X71.786Y13.425
X72.39Y47.752
X72.962Y15.303
X74.168Y14.224
X74.422Y65.444
X74.579Y90.17
X75.565Y13.425
X75.946Y60.452
X76.227Y23.141
X76.327Y43.815
X76.327Y35.052
X76.84Y10.16
X76.962Y64.516
X76.962Y27.686
X77.643Y25.363
X77.724Y37.592
X78.135Y10.963
X78.643Y61.722
X79.405Y11.684
X80.518Y13.462
X80.772Y64.516
X80.772Y60.96
X81.788Y23.114
X83.566Y35.052
X83.82Y26.162
X84.582Y29.972
X84.582Y24.638
X85.09Y42.672
X85.344Y23.876
X86.009Y11.684
X86.106Y52.832
X86.868Y46.482
X86.868Y10.922
X87.63Y49.022
X87.787Y10.16
X88.392Y42.418
X88.392Y40.132
X88.9Y19.558
X89.009Y36.467
X90.581Y33.782
X90.581Y13.462
X91.223Y41.213
X91.223Y35.052
X91.608Y51.017
X91.948Y42.672
X91.971Y14.224
X92.71Y35.052
X92.71Y15.24
X92.964Y39.116
X93.218Y57.912
X93.599Y27.559
X93.726Y32.512
X94.089Y46.337
X94.089Y33.8
X98.171Y38.989
X98.171Y25.273
X99.119Y43.62
X99.187Y27.813
X103.251Y30.099
X103.651Y52.724
X105.918Y57.658
X106.045Y37.973
T2
X10.668Y18.542
X12.192Y72.644
X12.192Y67.564
X12.192Y54.356
X12.192Y49.276
X15.748Y18.542
X62.387Y90.17
X66.197Y84.328
X67.467Y90.17
X71.277Y84.328
T3
X12.192Y85.852
X12.192Y80.852
X12.192Y44.704
X12.192Y39.704
X15.748Y87.376
X15.748Y79.756
X15.748Y72.136
X15.748Y69.596
X15.748Y67.056
X15.748Y64.516
X15.748Y61.976
X15.748Y59.436
X15.748Y56.896
X15.748Y54.356
X15.748Y51.816
X15.748Y49.276
X15.748Y46.736
X15.748Y44.196
X15.748Y41.656
X15.748Y39.116
X15.748Y36.576
X15.748Y34.036
X15.748Y31.496
X15.748Y28.956
X15.748Y26.416
X15.748Y23.876
X18.288Y87.376
X18.288Y79.756
X20.828Y87.376
X20.828Y79.756
X23.368Y87.376
X23.368Y79.756
X25.908Y87.376
X25.908Y79.756
X28.448Y87.376
X28.448Y79.756
X30.988Y87.376
X30.988Y79.756
X30.988Y72.136
X30.988Y69.596
X30.988Y67.056
X30.988Y64.516
X30.988Y61.976
X30.988Y59.436
X30.988Y56.896
X30.988Y54.356
X30.988Y51.816
X30.988Y49.276
X30.988Y46.736
X30.988Y44.196
X30.988Y41.656
X30.988Y39.116
X30.988Y36.576
X30.988Y34.036
X30.988Y31.496
X30.988Y28.956
X30.988Y26.416
X30.988Y23.876
X38.1Y62.992
X38.1Y60.452
X38.1Y57.912
X38.1Y55.372
X38.1Y52.832
X38.1Y50.292
X38.1Y47.752
X38.1Y45.212
X38.1Y42.672
X38.1Y40.132
X38.1Y37.592
X38.1Y35.052
X38.1Y32.512
X38.1Y29.972
X39.634Y84.841
X39.634Y82.301
X39.634Y79.761
X39.634Y77.221
X39.634Y74.681
X39.634Y72.141
X39.634Y69.601
X43.26Y66.294
X47.254Y84.841
X47.254Y82.301
X47.254Y79.761
X47.254Y77.221
X47.254Y74.681
X47.254Y72.141
X47.254Y69.601
X48.26Y66.294
X53.34Y87.376
X53.34Y84.836
X53.34Y82.296
X53.34Y79.756
X53.34Y77.216
X53.34Y74.676
X53.34Y72.136
X53.34Y69.596
X53.34Y62.992
X53.34Y60.452
X53.34Y57.912
X53.34Y55.372
X53.34Y52.832
X53.34Y50.292
X53.34Y47.752
X53.34Y45.212
X53.34Y42.672
X53.34Y40.132
X53.34Y37.592
X53.34Y35.052
X53.34Y32.512
X53.34Y29.972
X59.182Y62.992
X59.182Y60.452
X59.182Y57.912
X59.182Y55.372
X59.182Y52.832
X59.182Y50.292
X59.182Y47.752
X59.182Y45.212
X59.182Y42.672
X59.182Y40.132
X59.182Y37.592
X59.182Y35.052
X59.182Y32.512
X59.182Y29.972
X60.96Y87.376
X60.96Y84.836
X60.96Y82.296
X60.96Y79.756
X60.96Y77.216
X60.96Y74.676
X60.96Y72.136
X60.96Y69.596
X64.596Y66.04
X69.596Y66.04
X74.422Y62.992
X74.422Y60.452
X74.422Y57.912
X74.422Y55.372
X74.422Y52.832
X74.422Y50.292
X74.422Y47.752
X74.422Y45.212
X74.422Y42.672
X74.422Y40.132
X74.422Y37.592
X74.422Y35.052
X74.422Y32.512
X74.422Y29.972
X80.645Y57.912
X80.645Y55.372
X80.645Y52.832
X80.645Y50.292
X80.645Y47.752
X80.645Y45.212
X80.645Y42.672
X80.645Y40.132
X80.645Y37.592
X80.645Y35.052
X80.645Y32.512
X80.645Y29.972
X85.932Y60.96
X90.297Y10.16
X90.932Y60.96
X92.797Y10.16
X94.899Y78.486
X94.899Y70.866
X95.885Y57.912
X95.885Y55.372
X95.885Y52.832
X95.885Y50.292
X95.885Y47.752
X95.885Y45.212
X95.885Y42.672
X95.885Y40.132
X95.885Y37.592
X95.885Y35.052
X95.885Y32.512
X95.885Y29.972
X95.955Y85.598
X98.552Y54.102
X98.552Y51.562
X98.552Y49.022
X98.552Y46.482
X100.955Y85.598
X102.519Y78.486
X102.519Y70.866
X106.172Y54.102
X106.172Y51.562
X106.172Y49.022
X106.172Y46.482
T4
X67.467Y79.756
X70.007Y79.756
T5
X12.065Y62.738
X12.065Y60.198
X12.065Y57.658
X34.861Y20.701
X34.861Y18.161
X37.401Y20.701
X37.401Y18.161
X39.941Y20.701
X39.941Y18.161
X42.481Y20.701
X42.481Y18.161
X45.021Y20.701
X45.021Y18.161
X47.561Y20.701
X47.561Y18.161
X50.101Y20.701
X50.101Y18.161
X52.642Y20.701
X52.642Y18.161
X55.181Y20.701
X55.181Y18.161
X57.721Y20.701
X57.721Y18.161
X60.261Y20.701
X60.261Y18.161
X62.801Y20.701
X62.801Y18.161
X65.341Y20.701
X65.341Y18.161
X67.882Y20.701
X67.882Y18.161
X70.256Y90.17
X70.421Y20.701
X70.421Y18.161
X72.796Y90.17
X72.962Y20.701
X72.962Y18.161
X75.501Y20.701
X75.501Y18.161
X78.041Y20.701
X78.041Y18.161
X80.581Y20.701
X80.581Y18.161
X83.121Y20.701
X83.121Y18.161
X101.295Y37.973
X101.295Y35.433
X101.295Y32.893
X101.295Y30.353
X101.295Y27.813
X101.295Y25.273
T6
X11.121Y15.621
X11.121Y9.121
X15.621Y15.621
X15.621Y9.121
T0
M30
