%TF.GenerationSoftware,KiCad,Pcbnew,7.0.2-0*%
%TF.CreationDate,2023-05-22T09:33:56+09:00*%
%TF.ProjectId,SBC6808_Rev5,53424336-3830-4385-9f52-6576352e6b69,Rev5*%
%TF.SameCoordinates,PX3e22018PY9119050*%
%TF.FileFunction,Legend,Bot*%
%TF.FilePolarity,Positive*%
%FSLAX46Y46*%
G04 Gerber Fmt 4.6, Leading zero omitted, Abs format (unit mm)*
G04 Created by KiCad (PCBNEW 7.0.2-0) date 2023-05-22 09:33:56*
%MOMM*%
%LPD*%
G01*
G04 APERTURE LIST*
%ADD10C,0.300000*%
%ADD11C,0.120000*%
G04 APERTURE END LIST*
D10*
X96321285Y11322858D02*
X95635571Y11322858D01*
X95978428Y11322858D02*
X95978428Y12522858D01*
X95978428Y12522858D02*
X95864142Y12351429D01*
X95864142Y12351429D02*
X95749857Y12237143D01*
X95749857Y12237143D02*
X95635571Y12180000D01*
X97064142Y12522858D02*
X97178428Y12522858D01*
X97178428Y12522858D02*
X97292714Y12465715D01*
X97292714Y12465715D02*
X97349857Y12408572D01*
X97349857Y12408572D02*
X97406999Y12294286D01*
X97406999Y12294286D02*
X97464142Y12065715D01*
X97464142Y12065715D02*
X97464142Y11780000D01*
X97464142Y11780000D02*
X97406999Y11551429D01*
X97406999Y11551429D02*
X97349857Y11437143D01*
X97349857Y11437143D02*
X97292714Y11380000D01*
X97292714Y11380000D02*
X97178428Y11322858D01*
X97178428Y11322858D02*
X97064142Y11322858D01*
X97064142Y11322858D02*
X96949857Y11380000D01*
X96949857Y11380000D02*
X96892714Y11437143D01*
X96892714Y11437143D02*
X96835571Y11551429D01*
X96835571Y11551429D02*
X96778428Y11780000D01*
X96778428Y11780000D02*
X96778428Y12065715D01*
X96778428Y12065715D02*
X96835571Y12294286D01*
X96835571Y12294286D02*
X96892714Y12408572D01*
X96892714Y12408572D02*
X96949857Y12465715D01*
X96949857Y12465715D02*
X97064142Y12522858D01*
X97978428Y12122858D02*
X97978428Y10922858D01*
X98549856Y11494286D02*
X98606999Y11380000D01*
X98606999Y11380000D02*
X98721285Y11322858D01*
X97978428Y11494286D02*
X98035571Y11380000D01*
X98035571Y11380000D02*
X98149856Y11322858D01*
X98149856Y11322858D02*
X98378428Y11322858D01*
X98378428Y11322858D02*
X98492714Y11380000D01*
X98492714Y11380000D02*
X98549856Y11494286D01*
X98549856Y11494286D02*
X98549856Y12122858D01*
D11*
%TO.C,J2*%
X100025200Y25273000D02*
X100025200Y24003000D01*
X100025200Y24003000D02*
X101295200Y24003000D01*
X102338129Y38353000D02*
X102735200Y38353000D01*
X102338129Y37593000D02*
X102735200Y37593000D01*
X102338129Y35813000D02*
X102735200Y35813000D01*
X102338129Y35053000D02*
X102735200Y35053000D01*
X102338129Y33273000D02*
X102735200Y33273000D01*
X102338129Y32513000D02*
X102735200Y32513000D01*
X102338129Y30733000D02*
X102735200Y30733000D01*
X102338129Y29973000D02*
X102735200Y29973000D01*
X102338129Y28193000D02*
X102735200Y28193000D01*
X102338129Y27433000D02*
X102735200Y27433000D01*
X102405200Y25653000D02*
X102735200Y25653000D01*
X102405200Y24893000D02*
X102735200Y24893000D01*
X102735200Y39303000D02*
X105395200Y39303000D01*
X102735200Y36703000D02*
X105395200Y36703000D01*
X102735200Y34163000D02*
X105395200Y34163000D01*
X102735200Y31623000D02*
X105395200Y31623000D01*
X102735200Y29083000D02*
X105395200Y29083000D01*
X102735200Y26543000D02*
X105395200Y26543000D01*
X102735200Y23943000D02*
X102735200Y39303000D01*
X105395200Y39303000D02*
X105395200Y23943000D01*
X105395200Y37593000D02*
X111395200Y37593000D01*
X105395200Y35053000D02*
X111395200Y35053000D01*
X105395200Y32513000D02*
X111395200Y32513000D01*
X105395200Y29973000D02*
X111395200Y29973000D01*
X105395200Y27433000D02*
X111395200Y27433000D01*
X105395200Y25553000D02*
X111395200Y25553000D01*
X105395200Y25433000D02*
X111395200Y25433000D01*
X105395200Y25313000D02*
X111395200Y25313000D01*
X105395200Y25193000D02*
X111395200Y25193000D01*
X105395200Y25073000D02*
X111395200Y25073000D01*
X105395200Y24953000D02*
X111395200Y24953000D01*
X105395200Y24893000D02*
X111395200Y24893000D01*
X105395200Y23943000D02*
X102735200Y23943000D01*
X111395200Y38353000D02*
X105395200Y38353000D01*
X111395200Y37593000D02*
X111395200Y38353000D01*
X111395200Y35813000D02*
X105395200Y35813000D01*
X111395200Y35053000D02*
X111395200Y35813000D01*
X111395200Y33273000D02*
X105395200Y33273000D01*
X111395200Y32513000D02*
X111395200Y33273000D01*
X111395200Y30733000D02*
X105395200Y30733000D01*
X111395200Y29973000D02*
X111395200Y30733000D01*
X111395200Y28193000D02*
X105395200Y28193000D01*
X111395200Y27433000D02*
X111395200Y28193000D01*
X111395200Y25653000D02*
X105395200Y25653000D01*
X111395200Y24893000D02*
X111395200Y25653000D01*
%TD*%
M02*
